<?xml version="1.0" encoding="UTF-8" standalone="no"?>
<svg xmlns:svg="http://www.w3.org/2000/svg" xmlns:xlink="http://www.w3.org/1999/xlink" xmlns="http://www.w3.org/2000/svg" width="1476.5" height="1925.137" viewBox="0,0,1476.5,1925.137">
<style type="text/css">
.border { stroke: #000000; fill: none; stroke-width: 5; }
.seat { stroke: #000000; fill: #ffffff; stroke-width: 1; }
.undeclared { }
.con { fill: #0087dc; }
.lab { fill: #dc241f; }
.ld { fill: #fdbb30; }
.grn { fill: #6ab023; }
.pc { fill: #008142; }
.snp { fill: #ffff00; }
.dup { fill: #d46a4c; }
.sf { fill: #008800; }
.sdlp { fill: #99ff66; }
.ap { fill: #FFCC01; }
.ukip { fill: #70147a; }
.uup { fill: #9999ff; }
.ind { fill: #cccccc; }
.oth { fill: #999999; }
</style>
<g>
	<g id="constituencies" class="seat">
<path id="Orkney and Shetland" fill="null" stroke="null" d="M696.5,43.151L684 21.5 659 21.5 646.5 43.151 659 64.802 684 64.802z"/>
<path id="Caithness Sutherland and Easter Ross" fill="null" stroke="null" d="M584,108.104L571.5 86.453 546.5 86.453 534 108.104 546.5 129.755 571.5 129.755z"/>
<path id="Banff and Buchan" fill="null" stroke="null" d="M696.5,129.755L684 108.104 659 108.104 646.5 129.755 659 151.406 684 151.406z"/>
<path id="Na H-Eileanan An_Iar_Western_Isles" fill="null" stroke="null" d="M509,151.406L496.5 129.755 471.5 129.755 459 151.406 471.5 173.057 496.5 173.057z"/>
<path id="Ross Skye and Lochaber" fill="null" stroke="null" d="M584,151.406L571.5 129.755 546.5 129.755 534 151.406 546.5 173.057 571.5 173.057z"/>
<path id="Gordon" fill="null" stroke="null" d="M659,151.406L646.5 129.755 621.5 129.755 609 151.406 621.5 173.057 646.5 173.057z"/>
<path id="Aberdeen North" fill="null" stroke="null" d="M734,151.406L721.5 129.755 696.5 129.755 684 151.406 696.5 173.057 721.5 173.057z"/>
<path id="Inverness Nairn Badenoch and Strathspey" fill="null" stroke="null" d="M621.5,173.057L609 151.406 584 151.406 571.5 173.057 584 194.708 609 194.708z"/>
<path id="Aberdeenshire West and Kincardine" fill="null" stroke="null" d="M696.5,173.057L684 151.406 659 151.406 646.5 173.057 659 194.708 684 194.708z"/>
<path id="Aberdeen South" fill="null" stroke="null" d="M771.5,173.057L759 151.406 734 151.406 721.5 173.057 734 194.708 759 194.708z"/>
<path id="Stirling" fill="null" stroke="null" d="M584,194.708L571.5 173.057 546.5 173.057 534 194.708 546.5 216.359 571.5 216.359z"/>
<path id="Moray" fill="null" stroke="null" d="M659,194.708L646.5 173.057 621.5 173.057 609 194.708 621.5 216.359 646.5 216.359z"/>
<path id="Angus" fill="null" stroke="null" d="M734,194.708L721.5 173.057 696.5 173.057 684 194.708 696.5 216.359 721.5 216.359z"/>
<path id="Argyll and Bute" fill="null" stroke="null" d="M546.5,216.359L534 194.708 509 194.708 496.5 216.359 509 238.01 534 238.01z"/>
<path id="Perth and Perthshire North" fill="null" stroke="null" d="M621.5,216.359L609 194.708 584 194.708 571.5 216.359 584 238.01 609 238.01z"/>
<path id="Dundee East" fill="null" stroke="null" d="M696.5,216.359L684 194.708 659 194.708 646.5 216.359 659 238.01 684 238.01z"/>
<path id="Dunbartonshire West" fill="null" stroke="null" d="M584,238.01L571.5 216.359 546.5 216.359 534 238.01 546.5 259.661 571.5 259.661z"/>
<path id="Ochil and South Perthshire" fill="null" stroke="null" d="M659,238.01L646.5 216.359 621.5 216.359 609 238.01 621.5 259.661 646.5 259.661z"/>
<path id="Dundee West" fill="null" stroke="null" d="M734,238.01L721.5 216.359 696.5 216.359 684 238.01 696.5 259.661 721.5 259.661z"/>
<path id="Paisley and Renfrewshire North" fill="null" stroke="null" d="M546.5,259.661L534 238.01 509 238.01 496.5 259.661 509 281.312 534 281.312z"/>
<path id="Cumbernauld Kilsyth and Kirkintilloch East" fill="null" stroke="null" d="M621.5,259.661L609 238.01 584 238.01 571.5 259.661 584 281.312 609 281.312z"/>
<path id="Dunfermline and West Fife" fill="null" stroke="null" d="M696.5,259.661L684 238.01 659 238.01 646.5 259.661 659 281.312 684 281.312z"/>
<path id="Fife North East" fill="null" stroke="null" d="M771.5,259.661L759 238.01 734 238.01 721.5 259.661 734 281.312 759 281.312z"/>
<path id="Dunbartonshire East" fill="null" stroke="null" d="M584,281.312L571.5 259.661 546.5 259.661 534 281.312 546.5 302.963 571.5 302.963z"/>
<path id="Falkirk" fill="null" stroke="null" d="M659,281.312L646.5 259.661 621.5 259.661 609 281.312 621.5 302.963 646.5 302.963z"/>
<path id="Glenrothes" fill="null" stroke="null" d="M734,281.312L721.5 259.661 696.5 259.661 684 281.312 696.5 302.963 721.5 302.963z"/>
<path id="Glasgow North West" fill="null" stroke="null" d="M546.5,302.963L534 281.312 509 281.312 496.5 302.963 509 324.614 534 324.614z"/>
<path id="Glasgow North East" fill="null" stroke="null" d="M621.5,302.963L609 281.312 584 281.312 571.5 302.963 584 324.614 609 324.614z"/>
<path id="Kirkcaldy and Cowdenbeath" fill="null" stroke="null" d="M696.5,302.963L684 281.312 659 281.312 646.5 302.963 659 324.614 684 324.614z"/>
<path id="Inverclyde" fill="null" stroke="null" d="M509,324.614L496.5 302.963 471.5 302.963 459 324.614 471.5 346.265 496.5 346.265z"/>
<path id="Glasgow North" fill="null" stroke="null" d="M584,324.614L571.5 302.963 546.5 302.963 534 324.614 546.5 346.265 571.5 346.265z"/>
<path id="Linlithgow and Falkirk East" fill="null" stroke="null" d="M659,324.614L646.5 302.963 621.5 302.963 609 324.614 621.5 346.265 646.5 346.265z"/>
<path id="Glasgow South West" fill="null" stroke="null" d="M546.5,346.265L534 324.614 509 324.614 496.5 346.265 509 367.916 534 367.916z"/>
<path id="Glasgow East" fill="null" stroke="null" d="M621.5,346.265L609 324.614 584 324.614 571.5 346.265 584 367.916 609 367.916z"/>
<path id="Edinburgh West" fill="null" stroke="null" d="M696.5,346.265L684 324.614 659 324.614 646.5 346.265 659 367.916 684 367.916z"/>
<path id="Glasgow Central" fill="null" stroke="null" d="M584,367.916L571.5 346.265 546.5 346.265 534 367.916 546.5 389.567 571.5 389.567z"/>
<path id="Airdrie and Shotts" fill="null" stroke="null" d="M659,367.916L646.5 346.265 621.5 346.265 609 367.916 621.5 389.567 646.5 389.567z"/>
<path id="Edinburgh East" fill="null" stroke="null" d="M734,367.916L721.5 346.265 696.5 346.265 684 367.916 696.5 389.567 721.5 389.567z"/>
<path id="Paisley and Renfrewshire South" fill="null" stroke="null" d="M546.5,389.567L534 367.916 509 367.916 496.5 389.567 509 411.218 534 411.218z"/>
<path id="Coatbridge Chryston and Bellshill" fill="null" stroke="null" d="M621.5,389.567L609 367.916 584 367.916 571.5 389.567 584 411.218 609 411.218z"/>
<path id="Edinburgh South West" fill="null" stroke="null" d="M696.5,389.567L684 367.916 659 367.916 646.5 389.567 659 411.218 684 411.218z"/>
<path id="East Lothian" fill="null" stroke="null" d="M771.5,389.567L759 367.916 734 367.916 721.5 389.567 734 411.218 759 411.218z"/>
<path id="Renfrewshire East" fill="null" stroke="null" d="M584,411.218L571.5 389.567 546.5 389.567 534 411.218 546.5 432.869 571.5 432.869z"/>
<path id="Motherwell and Wishaw" fill="null" stroke="null" d="M659,411.218L646.5 389.567 621.5 389.567 609 411.218 621.5 432.869 646.5 432.869z"/>
<path id="Edinburgh North and Leith" fill="null" stroke="null" d="M734,411.218L721.5 389.567 696.5 389.567 684 411.218 696.5 432.869 721.5 432.869z"/>
<path id="Ayrshire North and Arran" fill="null" stroke="null" d="M546.5,432.869L534 411.218 509 411.218 496.5 432.869 509 454.52 534 454.52z"/>
<path id="Glasgow South" fill="null" stroke="null" d="M621.5,432.869L609 411.218 584 411.218 571.5 432.869 584 454.52 609 454.52z"/>
<path id="Edinburgh South" fill="null" stroke="null" d="M696.5,432.869L684 411.218 659 411.218 646.5 432.869 659 454.52 684 454.52z"/>
<path id="East Kilbride Strathaven and Lesmahagow" fill="null" stroke="null" d="M584,454.52L571.5 432.869 546.5 432.869 534 454.52 546.5 476.171 571.5 476.171z"/>
<path id="Lanark and Hamilton East" fill="null" stroke="null" d="M659,454.52L646.5 432.869 621.5 432.869 609 454.52 621.5 476.171 646.5 476.171z"/>
<path id="Berwickshire Roxburgh and Selkirk" fill="null" stroke="null" d="M734,454.52L721.5 432.869 696.5 432.869 684 454.52 696.5 476.171 721.5 476.171z"/>
<path id="Ayrshire Central" fill="null" stroke="null" d="M546.5,476.171L534 454.52 509 454.52 496.5 476.171 509 497.822 534 497.822z"/>
<path id="Kilmarnock and Loudoun" fill="null" stroke="null" d="M621.5,476.171L609 454.52 584 454.52 571.5 476.171 584 497.822 609 497.822z"/>
<path id="Livingston" fill="null" stroke="null" d="M696.5,476.171L684 454.52 659 454.52 646.5 476.171 659 497.822 684 497.822z"/>
<path id="Ayr Carrick and Cumnock" fill="null" stroke="null" d="M584,497.822L571.5 476.171 546.5 476.171 534 497.822 546.5 519.473 571.5 519.473z"/>
<path id="Rutherglen and Hamilton West" fill="null" stroke="null" d="M659,497.822L646.5 476.171 621.5 476.171 609 497.822 621.5 519.473 646.5 519.473z"/>
<path id="Midlothian" fill="null" stroke="null" d="M734,497.822L721.5 476.171 696.5 476.171 684 497.822 696.5 519.473 721.5 519.473z"/>
<path id="Dumfries and Galloway" fill="null" stroke="null" d="M621.5,519.473L609 497.822 584 497.822 571.5 519.473 584 541.124 609 541.124z"/>
<path id="Dumfriesshire Clydesdale and Tweeddale" fill="null" stroke="null" d="M696.5,519.473L684 497.822 659 497.822 646.5 519.473 659 541.124 684 541.124z"/>
<path id="Wansbeck" fill="null" stroke="null" d="M809,454.52L796.5 432.869 771.5 432.869 759 454.52 771.5 476.171 796.5 476.171z"/>
<path id="Tynemouth" fill="null" stroke="null" d="M884,454.52L871.5 432.869 846.5 432.869 834 454.52 846.5 476.171 871.5 476.171z"/>
<path id="Berwick-Upon-Tweed" fill="null" stroke="null" d="M771.5,476.171L759 454.52 734 454.52 721.5 476.171 734 497.822 759 497.822z"/>
<path id="Blyth Valley" fill="null" stroke="null" d="M846.5,476.171L834 454.52 809 454.52 796.5 476.171 809 497.822 834 497.822z"/>
<path id="South Shields" fill="null" stroke="null" d="M921.5,476.171L909 454.52 884 454.52 871.5 476.171 884 497.822 909 497.822z"/>
<path id="Newcastle Upon Tyne_North" fill="null" stroke="null" d="M809,497.822L796.5 476.171 771.5 476.171 759 497.822 771.5 519.473 796.5 519.473z"/>
<path id="Jarrow" fill="null" stroke="null" d="M884,497.822L871.5 476.171 846.5 476.171 834 497.822 846.5 519.473 871.5 519.473z"/>
<path id="Sunderland Central" fill="null" stroke="null" d="M959,497.822L946.5 476.171 921.5 476.171 909 497.822 921.5 519.473 946.5 519.473z"/>
<path id="Hexham" fill="null" stroke="null" d="M771.5,519.473L759 497.822 734 497.822 721.5 519.473 734 541.124 759 541.124z"/>
<path id="Tyneside North" fill="null" stroke="null" d="M846.5,519.473L834 497.822 809 497.822 796.5 519.473 809 541.124 834 541.124z"/>
<path id="Washington and Sunderland West" fill="null" stroke="null" d="M921.5,519.473L909 497.822 884 497.822 871.5 519.473 884 541.124 909 541.124z"/>
<path id="Newcastle Upon Tyne_Central" fill="null" stroke="null" d="M809,541.124L796.5 519.473 771.5 519.473 759 541.124 771.5 562.775 796.5 562.775z"/>
<path id="Gateshead" fill="null" stroke="null" d="M884,541.124L871.5 519.473 846.5 519.473 834 541.124 846.5 562.775 871.5 562.775z"/>
<path id="Easington" fill="null" stroke="null" d="M959,541.124L946.5 519.473 921.5 519.473 909 541.124 921.5 562.775 946.5 562.775z"/>
<path id="Blaydon" fill="null" stroke="null" d="M771.5,562.775L759 541.124 734 541.124 721.5 562.775 734 584.426 759 584.426z"/>
<path id="Newcastle Upon Tyne_East" fill="null" stroke="null" d="M846.5,562.775L834 541.124 809 541.124 796.5 562.775 809 584.426 834 584.426z"/>
<path id="Houghton and Sunderland South" fill="null" stroke="null" d="M921.5,562.775L909 541.124 884 541.124 871.5 562.775 884 584.426 909 584.426z"/>
<path id="Hartlepool" fill="null" stroke="null" d="M996.5,562.775L984 541.124 959 541.124 946.5 562.775 959 584.426 984 584.426z"/>
<path id="Durham North West" fill="null" stroke="null" d="M809,584.426L796.5 562.775 771.5 562.775 759 584.426 771.5 606.077 796.5 606.077z"/>
<path id="Durham City of" fill="null" stroke="null" d="M884,584.426L871.5 562.775 846.5 562.775 834 584.426 846.5 606.077 871.5 606.077z"/>
<path id="Stockton North" fill="null" stroke="null" d="M959,584.426L946.5 562.775 921.5 562.775 909 584.426 921.5 606.077 946.5 606.077z"/>
<path id="Redcar" fill="null" stroke="null" d="M1034,584.426L1021.5 562.775 996.5 562.775 984 584.426 996.5 606.077 1021.5 606.077z"/>
<path id="Durham North" fill="null" stroke="null" d="M846.5,606.077L834 584.426 809 584.426 796.5 606.077 809 627.728 834 627.728z"/>
<path id="Sedgefield" fill="null" stroke="null" d="M921.5,606.077L909 584.426 884 584.426 871.5 606.077 884 627.728 909 627.728z"/>
<path id="Middlesbrough" fill="null" stroke="null" d="M996.5,606.077L984 584.426 959 584.426 946.5 606.077 959 627.728 984 627.728z"/>
<path id="Bishop Auckland" fill="null" stroke="null" d="M884,627.728L871.5 606.077 846.5 606.077 834 627.728 846.5 649.379 871.5 649.379z"/>
<path id="Darlington" fill="null" stroke="null" d="M959,627.728L946.5 606.077 921.5 606.077 909 627.728 921.5 649.379 946.5 649.379z"/>
<path id="Middlesbrough South and Cleveland East" fill="null" stroke="null" d="M1034,627.728L1021.5 606.077 996.5 606.077 984 627.728 996.5 649.379 1021.5 649.379z"/>
<path id="Stockton South" fill="null" stroke="null" d="M996.5,649.379L984 627.728 959 627.728 946.5 649.379 959 671.03 984 671.03z"/>
<path id="Penrith and The Border" fill="null" stroke="null" d="M734,541.124L721.5 519.473 696.5 519.473 684 541.124 696.5 562.775 721.5 562.775z"/>
<path id="Workington" fill="null" stroke="null" d="M696.5,562.775L684 541.124 659 541.124 646.5 562.775 659 584.426 684 584.426z"/>
<path id="Carlisle" fill="null" stroke="null" d="M734,584.426L721.5 562.775 696.5 562.775 684 584.426 696.5 606.077 721.5 606.077z"/>
<path id="Copeland" fill="null" stroke="null" d="M696.5,606.077L684 584.426 659 584.426 646.5 606.077 659 627.728 684 627.728z"/>
<path id="Westmorland and Lonsdale" fill="null" stroke="null" d="M771.5,606.077L759 584.426 734 584.426 721.5 606.077 734 627.728 759 627.728z"/>
<path id="Morecambe and Lunesdale" fill="null" stroke="null" d="M734,627.728L721.5 606.077 696.5 606.077 684 627.728 696.5 649.379 721.5 649.379z"/>
<path id="Lancaster and Fleetwood" fill="null" stroke="null" d="M809,627.728L796.5 606.077 771.5 606.077 759 627.728 771.5 649.379 796.5 649.379z"/>
<path id="Barrow and Furness" fill="null" stroke="null" d="M696.5,649.379L684 627.728 659 627.728 646.5 649.379 659 671.03 684 671.03z"/>
<path id="Wyre and Preston North" fill="null" stroke="null" d="M771.5,649.379L759 627.728 734 627.728 721.5 649.379 734 671.03 759 671.03z"/>
<path id="Ribble Valley" fill="null" stroke="null" d="M846.5,649.379L834 627.728 809 627.728 796.5 649.379 809 671.03 834 671.03z"/>
<path id="Blackpool North and Cleveleys" fill="null" stroke="null" d="M659,671.03L646.5 649.379 621.5 649.379 609 671.03 621.5 692.681 646.5 692.681z"/>
<path id="Blackburn" fill="null" stroke="null" d="M734,671.03L721.5 649.379 696.5 649.379 684 671.03 696.5 692.681 721.5 692.681z"/>
<path id="Hyndburn" fill="null" stroke="null" d="M809,671.03L796.5 649.379 771.5 649.379 759 671.03 771.5 692.681 796.5 692.681z"/>
<path id="Blackpool South" fill="null" stroke="null" d="M621.5,692.681L609 671.03 584 671.03 571.5 692.681 584 714.332 609 714.332z"/>
<path id="Preston" fill="null" stroke="null" d="M696.5,692.681L684 671.03 659 671.03 646.5 692.681 659 714.332 684 714.332z"/>
<path id="Bury North" fill="null" stroke="null" d="M771.5,692.681L759 671.03 734 671.03 721.5 692.681 734 714.332 759 714.332z"/>
<path id="Pendle" fill="null" stroke="null" d="M846.5,692.681L834 671.03 809 671.03 796.5 692.681 809 714.332 834 714.332z"/>
<path id="Chorley" fill="null" stroke="null" d="M659,714.332L646.5 692.681 621.5 692.681 609 714.332 621.5 735.983 646.5 735.983z"/>
<path id="Bolton North East" fill="null" stroke="null" d="M734,714.332L721.5 692.681 696.5 692.681 684 714.332 696.5 735.983 721.5 735.983z"/>
<path id="Heywood and Middleton" fill="null" stroke="null" d="M809,714.332L796.5 692.681 771.5 692.681 759 714.332 771.5 735.983 796.5 735.983z"/>
<path id="Fylde" fill="null" stroke="null" d="M621.5,735.983L609 714.332 584 714.332 571.5 735.983 584 757.634 609 757.634z"/>
<path id="Bolton West" fill="null" stroke="null" d="M696.5,735.983L684 714.332 659 714.332 646.5 735.983 659 757.634 684 757.634z"/>
<path id="Bury South" fill="null" stroke="null" d="M771.5,735.983L759 714.332 734 714.332 721.5 735.983 734 757.634 759 757.634z"/>
<path id="Burnley" fill="null" stroke="null" d="M846.5,735.983L834 714.332 809 714.332 796.5 735.983 809 757.634 834 757.634z"/>
<path id="Wigan" fill="null" stroke="null" d="M659,757.634L646.5 735.983 621.5 735.983 609 757.634 621.5 779.285 646.5 779.285z"/>
<path id="Bolton South East" fill="null" stroke="null" d="M734,757.634L721.5 735.983 696.5 735.983 684 757.634 696.5 779.285 721.5 779.285z"/>
<path id="Oldham West and Royton" fill="null" stroke="null" d="M809,757.634L796.5 735.983 771.5 735.983 759 757.634 771.5 779.285 796.5 779.285z"/>
<path id="Lancashire West" fill="null" stroke="null" d="M621.5,779.285L609 757.634 584 757.634 571.5 779.285 584 800.936 609 800.936z"/>
<path id="Stretford and Urmston" fill="null" stroke="null" d="M696.5,779.285L684 757.634 659 757.634 646.5 779.285 659 800.936 684 800.936z"/>
<path id="Blackley and Broughton" fill="null" stroke="null" d="M771.5,779.285L759 757.634 734 757.634 721.5 779.285 734 800.936 759 800.936z"/>
<path id="Rossendale and Darwen" fill="null" stroke="null" d="M846.5,779.285L834 757.634 809 757.634 796.5 779.285 809 800.936 834 800.936z"/>
<path id="South Ribble" fill="null" stroke="null" d="M584,800.936L571.5 779.285 546.5 779.285 534 800.936 546.5 822.587 571.5 822.587z"/>
<path id="Makerfield" fill="null" stroke="null" d="M659,800.936L646.5 779.285 621.5 779.285 609 800.936 621.5 822.587 646.5 822.587z"/>
<path id="Salford and Eccles" fill="null" stroke="null" d="M734,800.936L721.5 779.285 696.5 779.285 684 800.936 696.5 822.587 721.5 822.587z"/>
<path id="Ashton-under-Lyne" fill="null" stroke="null" d="M809,800.936L796.5 779.285 771.5 779.285 759 800.936 771.5 822.587 796.5 822.587z"/>
<path id="Southport" fill="null" stroke="null" d="M546.5,822.587L534 800.936 509 800.936 496.5 822.587 509 844.238 534 844.238z"/>
<path id="St Helens North" fill="null" stroke="null" d="M621.5,822.587L609 800.936 584 800.936 571.5 822.587 584 844.238 609 844.238z"/>
<path id="Manchester Gorton" fill="null" stroke="null" d="M696.5,822.587L684 800.936 659 800.936 646.5 822.587 659 844.238 684 844.238z"/>
<path id="Manchester Central" fill="null" stroke="null" d="M771.5,822.587L759 800.936 734 800.936 721.5 822.587 734 844.238 759 844.238z"/>
<path id="Rochdale" fill="null" stroke="null" d="M846.5,822.587L834 800.936 809 800.936 796.5 822.587 809 844.238 834 844.238z"/>
<path id="Liverpool Walton" fill="null" stroke="null" d="M584,844.238L571.5 822.587 546.5 822.587 534 844.238 546.5 865.889 571.5 865.889z"/>
<path id="Leigh" fill="null" stroke="null" d="M659,844.238L646.5 822.587 621.5 822.587 609 844.238 621.5 865.889 646.5 865.889z"/>
<path id="Wythenshawe and Sale East" fill="null" stroke="null" d="M734,844.238L721.5 822.587 696.5 822.587 684 844.238 696.5 865.889 721.5 865.889z"/>
<path id="Denton and Reddish" fill="null" stroke="null" d="M809,844.238L796.5 822.587 771.5 822.587 759 844.238 771.5 865.889 796.5 865.889z"/>
<path id="Sefton Central" fill="null" stroke="null" d="M546.5,865.889L534 844.238 509 844.238 496.5 865.889 509 887.54 534 887.54z"/>
<path id="Knowsley" fill="null" stroke="null" d="M621.5,865.889L609 844.238 584 844.238 571.5 865.889 584 887.54 609 887.54z"/>
<path id="Worsley and Eccles South" fill="null" stroke="null" d="M696.5,865.889L684 844.238 659 844.238 646.5 865.889 659 887.54 684 887.54z"/>
<path id="Manchester Withington" fill="null" stroke="null" d="M771.5,865.889L759 844.238 734 844.238 721.5 865.889 734 887.54 759 887.54z"/>
<path id="Oldham East and Saddleworth" fill="null" stroke="null" d="M846.5,865.889L834 844.238 809 844.238 796.5 865.889 809 887.54 834 887.54z"/>
<path id="Liverpool West Derby" fill="null" stroke="null" d="M584,887.54L571.5 865.889 546.5 865.889 534 887.54 546.5 909.191 571.5 909.191z"/>
<path id="Warrington North" fill="null" stroke="null" d="M659,887.54L646.5 865.889 621.5 865.889 609 887.54 621.5 909.191 646.5 909.191z"/>
<path id="Altrincham and Sale West" fill="null" stroke="null" d="M734,887.54L721.5 865.889 696.5 865.889 684 887.54 696.5 909.191 721.5 909.191z"/>
<path id="Stockport" fill="null" stroke="null" d="M809,887.54L796.5 865.889 771.5 865.889 759 887.54 771.5 909.191 796.5 909.191z"/>
<path id="Birkenhead" fill="null" stroke="null" d="M546.5,909.191L534 887.54 509 887.54 496.5 909.191 509 930.842 534 930.842z"/>
<path id="St Helens South and Whiston" fill="null" stroke="null" d="M621.5,909.191L609 887.54 584 887.54 571.5 909.191 584 930.842 609 930.842z"/>
<path id="Warrington South" fill="null" stroke="null" d="M696.5,909.191L684 887.54 659 887.54 646.5 909.191 659 930.842 684 930.842z"/>
<path id="Cheadle" fill="null" stroke="null" d="M771.5,909.191L759 887.54 734 887.54 721.5 909.191 734 930.842 759 930.842z"/>
<path id="Stalybridge and Hyde" fill="null" stroke="null" d="M846.5,909.191L834 887.54 809 887.54 796.5 909.191 809 930.842 834 930.842z"/>
<path id="Bootle" fill="null" stroke="null" d="M509,930.842L496.5 909.191 471.5 909.191 459 930.842 471.5 952.493 496.5 952.493z"/>
<path id="Liverpool Wavertree" fill="null" stroke="null" d="M584,930.842L571.5 909.191 546.5 909.191 534 930.842 546.5 952.493 571.5 952.493z"/>
<path id="Halton" fill="null" stroke="null" d="M659,930.842L646.5 909.191 621.5 909.191 609 930.842 621.5 952.493 646.5 952.493z"/>
<path id="Tatton" fill="null" stroke="null" d="M734,930.842L721.5 909.191 696.5 909.191 684 930.842 696.5 952.493 721.5 952.493z"/>
<path id="Macclesfield" fill="null" stroke="null" d="M809,930.842L796.5 909.191 771.5 909.191 759 930.842 771.5 952.493 796.5 952.493z"/>
<path id="Ellesmere Port and Neston" fill="null" stroke="null" d="M546.5,952.493L534 930.842 509 930.842 496.5 952.493 509 974.144 534 974.144z"/>
<path id="Garston and Halewood" fill="null" stroke="null" d="M621.5,952.493L609 930.842 584 930.842 571.5 952.493 584 974.144 609 974.144z"/>
<path id="Crewe and Nantwich" fill="null" stroke="null" d="M696.5,952.493L684 930.842 659 930.842 646.5 952.493 659 974.144 684 974.144z"/>
<path id="Congleton" fill="null" stroke="null" d="M771.5,952.493L759 930.842 734 930.842 721.5 952.493 734 974.144 759 974.144z"/>
<path id="Hazel Grove" fill="null" stroke="null" d="M846.5,952.493L834 930.842 809 930.842 796.5 952.493 809 974.144 834 974.144z"/>
<path id="Wallasey" fill="null" stroke="null" d="M509,974.144L496.5 952.493 471.5 952.493 459 974.144 471.5 995.795 496.5 995.795z"/>
<path id="Liverpool Riverside" fill="null" stroke="null" d="M584,974.144L571.5 952.493 546.5 952.493 534 974.144 546.5 995.795 571.5 995.795z"/>
<path id="Weaver Vale" fill="null" stroke="null" d="M659,974.144L646.5 952.493 621.5 952.493 609 974.144 621.5 995.795 646.5 995.795z"/>
<path id="Wirral South" fill="null" stroke="null" d="M546.5,995.795L534 974.144 509 974.144 496.5 995.795 509 1017.446 534 1017.446z"/>
<path id="Eddisbury" fill="null" stroke="null" d="M621.5,995.795L609 974.144 584 974.144 571.5 995.795 584 1017.446 609 1017.446z"/>
<path id="Wirral West" fill="null" stroke="null" d="M509,1017.446L496.5 995.795 471.5 995.795 459 1017.446 471.5 1039.097 496.5 1039.097z"/>
<path id="Chester City of" fill="null" stroke="null" d="M584,1017.446L571.5 995.795 546.5 995.795 534 1017.446 546.5 1039.097 571.5 1039.097z"/>

<path id="East Londonderry" fill="null" stroke="null" d="M134,627.728L121.5 606.077 96.5 606.077 84 627.728 96.5 649.379 121.5 649.379z"/>
<path id="Foyle" fill="null" stroke="null" d="M96.5,649.379L84 627.728 59 627.728 46.5 649.379 59 671.03 84 671.03z"/>
<path id="North Antrim" fill="null" stroke="null" d="M171.5,649.379L159 627.728 134 627.728 121.5 649.379 134 671.03 159 671.03z"/>
<path id="West Tyrone" fill="null" stroke="null" d="M59,671.03L46.5 649.379 21.5 649.379 9 671.03 21.5 692.681 46.5 692.681z"/>
<path id="South Antrim" fill="null" stroke="null" d="M134,671.03L121.5 649.379 96.5 649.379 84 671.03 96.5 692.681 121.5 692.681z"/>
<path id="East Antrim" fill="null" stroke="null" d="M209,671.03L196.5 649.379 171.5 649.379 159 671.03 171.5 692.681 196.5 692.681z"/>
<path id="Mid Ulster" fill="null" stroke="null" d="M96.5,692.681L84 671.03 59 671.03 46.5 692.681 59 714.332 84 714.332z"/>
<path id="Belfast North" fill="null" stroke="null" d="M171.5,692.681L159 671.03 134 671.03 121.5 692.681 134 714.332 159 714.332z"/>
<path id="Fermanagh and South Tyrone" fill="null" stroke="null" d="M59,714.332L46.5 692.681 21.5 692.681 9 714.332 21.5 735.983 46.5 735.983z"/>
<path id="Belfast West" fill="null" stroke="null" d="M134,714.332L121.5 692.681 96.5 692.681 84 714.332 96.5 735.983 121.5 735.983z"/>
<path id="Belfast East" fill="null" stroke="null" d="M171.5,735.983L159 714.332 134 714.332 121.5 735.983 134 757.634 159 757.634z"/>
<path id="Belfast South" fill="null" stroke="null" d="M134,757.634L121.5 735.983 96.5 735.983 84 757.634 96.5 779.285 121.5 779.285z"/>
<path id="North Down" fill="null" stroke="null" d="M209,757.634L196.5 735.983 171.5 735.983 159 757.634 171.5 779.285 196.5 779.285z"/>
<path id="Newry and Armagh" fill="null" stroke="null" d="M96.5,779.285L84 757.634 59 757.634 46.5 779.285 59 800.936 84 800.936z"/>
<path id="Lagan Valley" fill="null" stroke="null" d="M171.5,779.285L159 757.634 134 757.634 121.5 779.285 134 800.936 159 800.936z"/>
<path id="Upper Bann" fill="null" stroke="null" d="M134,800.936L121.5 779.285 96.5 779.285 84 800.936 96.5 822.587 121.5 822.587z"/>
<path id="Strangford" fill="null" stroke="null" d="M209,800.936L196.5 779.285 171.5 779.285 159 800.936 171.5 822.587 196.5 822.587z"/>
<path id="South Down" fill="null" stroke="null" d="M171.5,822.587L159 800.936 134 800.936 121.5 822.587 134 844.238 159 844.238z"/>

<path id="Richmond Yorks" fill="null" stroke="null" d="M921.5,649.379L909 627.728 884 627.728 871.5 649.379 884 671.03 909 671.03z"/>
<path id="Skipton and Ripon" fill="null" stroke="null" d="M884,671.03L871.5 649.379 846.5 649.379 834 671.03 846.5 692.681 871.5 692.681z"/>
<path id="Shipley" fill="null" stroke="null" d="M959,671.03L946.5 649.379 921.5 649.379 909 671.03 921.5 692.681 946.5 692.681z"/>
<path id="Harrogate and Knaresborough" fill="null" stroke="null" d="M1034,671.03L1021.5 649.379 996.5 649.379 984 671.03 996.5 692.681 1021.5 692.681z"/>
<path id="Pudsey" fill="null" stroke="null" d="M921.5,692.681L909 671.03 884 671.03 871.5 692.681 884 714.332 909 714.332z"/>
<path id="Elmet and Rothwell" fill="null" stroke="null" d="M996.5,692.681L984 671.03 959 671.03 946.5 692.681 959 714.332 984 714.332z"/>
<path id="Scarborough and Whitby" fill="null" stroke="null" d="M1071.5,692.681L1059 671.03 1034 671.03 1021.5 692.681 1034 714.332 1059 714.332z"/>
<path id="Keighley" fill="null" stroke="null" d="M884,714.332L871.5 692.681 846.5 692.681 834 714.332 846.5 735.983 871.5 735.983z"/>
<path id="Leeds West" fill="null" stroke="null" d="M959,714.332L946.5 692.681 921.5 692.681 909 714.332 921.5 735.983 946.5 735.983z"/>
<path id="Selby and Ainsty" fill="null" stroke="null" d="M1034,714.332L1021.5 692.681 996.5 692.681 984 714.332 996.5 735.983 1021.5 735.983z"/>
<path id="Bradford East" fill="null" stroke="null" d="M921.5,735.983L909 714.332 884 714.332 871.5 735.983 884 757.634 909 757.634z"/>
<path id="Normanton Pontefract and Castleford" fill="null" stroke="null" d="M996.5,735.983L984 714.332 959 714.332 946.5 735.983 959 757.634 984 757.634z"/>
<path id="York Outer" fill="null" stroke="null" d="M1071.5,735.983L1059 714.332 1034 714.332 1021.5 735.983 1034 757.634 1059 757.634z"/>
<path id="Bradford West" fill="null" stroke="null" d="M884,757.634L871.5 735.983 846.5 735.983 834 757.634 846.5 779.285 871.5 779.285z"/>
<path id="Leeds North West" fill="null" stroke="null" d="M959,757.634L946.5 735.983 921.5 735.983 909 757.634 921.5 779.285 946.5 779.285z"/>
<path id="York Central" fill="null" stroke="null" d="M1034,757.634L1021.5 735.983 996.5 735.983 984 757.634 996.5 779.285 1021.5 779.285z"/>
<path id="Thirsk and Malton" fill="null" stroke="null" d="M1109,757.634L1096.5 735.983 1071.5 735.983 1059 757.634 1071.5 779.285 1096.5 779.285z"/>
<path id="Leeds Central" fill="null" stroke="null" d="M921.5,779.285L909 757.634 884 757.634 871.5 779.285 884 800.936 909 800.936z"/>
<path id="Leeds North East" fill="null" stroke="null" d="M996.5,779.285L984 757.634 959 757.634 946.5 779.285 959 800.936 984 800.936z"/>
<path id="Hemsworth" fill="null" stroke="null" d="M1071.5,779.285L1059 757.634 1034 757.634 1021.5 779.285 1034 800.936 1059 800.936z"/>
<path id="Yorkshire East" fill="null" stroke="null" d="M1146.5,779.285L1134 757.634 1109 757.634 1096.5 779.285 1109 800.936 1134 800.936z"/>
<path id="Bradford South" fill="null" stroke="null" d="M884,800.936L871.5 779.285 846.5 779.285 834 800.936 846.5 822.587 871.5 822.587z"/>
<path id="Wakefield" fill="null" stroke="null" d="M959,800.936L946.5 779.285 921.5 779.285 909 800.936 921.5 822.587 946.5 822.587z"/>
<path id="Leeds East" fill="null" stroke="null" d="M1034,800.936L1021.5 779.285 996.5 779.285 984 800.936 996.5 822.587 1021.5 822.587z"/>
<path id="Haltemprice and Howden" fill="null" stroke="null" d="M1109,800.936L1096.5 779.285 1071.5 779.285 1059 800.936 1071.5 822.587 1096.5 822.587z"/>
<path id="Batley and Spen" fill="null" stroke="null" d="M921.5,822.587L909 800.936 884 800.936 871.5 822.587 884 844.238 909 844.238z"/>
<path id="Morley and Outwood" fill="null" stroke="null" d="M996.5,822.587L984 800.936 959 800.936 946.5 822.587 959 844.238 984 844.238z"/>
<path id="Doncaster North" fill="null" stroke="null" d="M1071.5,822.587L1059 800.936 1034 800.936 1021.5 822.587 1034 844.238 1059 844.238z"/>
<path id="Beverley and Holderness" fill="null" stroke="null" d="M1146.5,822.587L1134 800.936 1109 800.936 1096.5 822.587 1109 844.238 1134 844.238z"/>
<path id="Halifax" fill="null" stroke="null" d="M884,844.238L871.5 822.587 846.5 822.587 834 844.238 846.5 865.889 871.5 865.889z"/>
<path id="Dewsbury" fill="null" stroke="null" d="M959,844.238L946.5 822.587 921.5 822.587 909 844.238 921.5 865.889 946.5 865.889z"/>
<path id="Wentworth and Dearne" fill="null" stroke="null" d="M1034,844.238L1021.5 822.587 996.5 822.587 984 844.238 996.5 865.889 1021.5 865.889z"/>
<path id="Hull North" fill="null" stroke="null" d="M1109,844.238L1096.5 822.587 1071.5 822.587 1059 844.238 1071.5 865.889 1096.5 865.889z"/>
<path id="Huddersfield" fill="null" stroke="null" d="M921.5,865.889L909 844.238 884 844.238 871.5 865.889 884 887.54 909 887.54z"/>
<path id="Rotherham" fill="null" stroke="null" d="M996.5,865.889L984 844.238 959 844.238 946.5 865.889 959 887.54 984 887.54z"/>
<path id="Doncaster Central" fill="null" stroke="null" d="M1071.5,865.889L1059 844.238 1034 844.238 1021.5 865.889 1034 887.54 1059 887.54z"/>
<path id="Calder Valley" fill="null" stroke="null" d="M884,887.54L871.5 865.889 846.5 865.889 834 887.54 846.5 909.191 871.5 909.191z"/>
<path id="Barnsley East" fill="null" stroke="null" d="M959,887.54L946.5 865.889 921.5 865.889 909 887.54 921.5 909.191 946.5 909.191z"/>
<path id="Don Valley" fill="null" stroke="null" d="M1034,887.54L1021.5 865.889 996.5 865.889 984 887.54 996.5 909.191 1021.5 909.191z"/>
<path id="Hull East" fill="null" stroke="null" d="M1109,887.54L1096.5 865.889 1071.5 865.889 1059 887.54 1071.5 909.191 1096.5 909.191z"/>
<path id="Barnsley Central" fill="null" stroke="null" d="M921.5,909.191L909 887.54 884 887.54 871.5 909.191 884 930.842 909 930.842z"/>
<path id="Sheffield Brightside and Hillsborough" fill="null" stroke="null" d="M996.5,909.191L984 887.54 959 887.54 946.5 909.191 959 930.842 984 930.842z"/>
<path id="Brigg and Goole" fill="null" stroke="null" d="M1071.5,909.191L1059 887.54 1034 887.54 1021.5 909.191 1034 930.842 1059 930.842z"/>
<path id="Colne Valley" fill="null" stroke="null" d="M884,930.842L871.5 909.191 846.5 909.191 834 930.842 846.5 952.493 871.5 952.493z"/>
<path id="Sheffield Central" fill="null" stroke="null" d="M959,930.842L946.5 909.191 921.5 909.191 909 930.842 921.5 952.493 946.5 952.493z"/>
<path id="Sheffield South East" fill="null" stroke="null" d="M1034,930.842L1021.5 909.191 996.5 909.191 984 930.842 996.5 952.493 1021.5 952.493z"/>
<path id="Hull West and Hessle" fill="null" stroke="null" d="M1109,930.842L1096.5 909.191 1071.5 909.191 1059 930.842 1071.5 952.493 1096.5 952.493z"/>
<path id="Penistone and Stocksbridge" fill="null" stroke="null" d="M921.5,952.493L909 930.842 884 930.842 871.5 952.493 884 974.144 909 974.144z"/>
<path id="Sheffield Heeley" fill="null" stroke="null" d="M996.5,952.493L984 930.842 959 930.842 946.5 952.493 959 974.144 984 974.144z"/>
<path id="Rother Valley" fill="null" stroke="null" d="M1071.5,952.493L1059 930.842 1034 930.842 1021.5 952.493 1034 974.144 1059 974.144z"/>
<path id="Great Grimsby" fill="null" stroke="null" d="M1146.5,952.493L1134 930.842 1109 930.842 1096.5 952.493 1109 974.144 1134 974.144z"/>
<path id="Sheffield Hallam" fill="null" stroke="null" d="M959,974.144L946.5 952.493 921.5 952.493 909 974.144 921.5 995.795 946.5 995.795z"/>
<path id="Scunthorpe" fill="null" stroke="null" d="M1109,974.144L1096.5 952.493 1071.5 952.493 1059 974.144 1071.5 995.795 1096.5 995.795z"/>
<path id="Cleethorpes" fill="null" stroke="null" d="M1146.5,995.795L1134 974.144 1109 974.144 1096.5 995.795 1109 1017.446 1134 1017.446z"/>

<path id="Staffordshire Moorlands" fill="null" stroke="null" d="M734,974.144L721.5 952.493 696.5 952.493 684 974.144 696.5 995.795 721.5 995.795z"/>
<path id="Burton" fill="null" stroke="null" d="M809,974.144L796.5 952.493 771.5 952.493 759 974.144 771.5 995.795 796.5 995.795z"/>
<path id="Stoke-on-Trent Central" fill="null" stroke="null" d="M696.5,995.795L684 974.144 659 974.144 646.5 995.795 659 1017.446 684 1017.446z"/>
<path id="Stone" fill="null" stroke="null" d="M771.5,995.795L759 974.144 734 974.144 721.5 995.795 734 1017.446 759 1017.446z"/>
<path id="Tamworth" fill="null" stroke="null" d="M846.5,995.795L834 974.144 809 974.144 796.5 995.795 809 1017.446 834 1017.446z"/>
<path id="Stoke-on-Trent North" fill="null" stroke="null" d="M659,1017.446L646.5 995.795 621.5 995.795 609 1017.446 621.5 1039.097 646.5 1039.097z"/>
<path id="Wolverhampton North East" fill="null" stroke="null" d="M734,1017.446L721.5 995.795 696.5 995.795 684 1017.446 696.5 1039.097 721.5 1039.097z"/>
<path id="Lichfield" fill="null" stroke="null" d="M809,1017.446L796.5 995.795 771.5 995.795 759 1017.446 771.5 1039.097 796.5 1039.097z"/>
<path id="Newcastle-under-Lyme" fill="null" stroke="null" d="M621.5,1039.097L609 1017.446 584 1017.446 571.5 1039.097 584 1060.748 609 1060.748z"/>
<path id="Stoke-on-Trent South" fill="null" stroke="null" d="M696.5,1039.097L684 1017.446 659 1017.446 646.5 1039.097 659 1060.748 684 1060.748z"/>
<path id="Stafford" fill="null" stroke="null" d="M771.5,1039.097L759 1017.446 734 1017.446 721.5 1039.097 734 1060.748 759 1060.748z"/>
<path id="Warwickshire North" fill="null" stroke="null" d="M846.5,1039.097L834 1017.446 809 1017.446 796.5 1039.097 809 1060.748 834 1060.748z"/>
<path id="Staffordshire South" fill="null" stroke="null" d="M659,1060.748L646.5 1039.097 621.5 1039.097 609 1060.748 621.5 1082.399 646.5 1082.399z"/>
<path id="Walsall North" fill="null" stroke="null" d="M734,1060.748L721.5 1039.097 696.5 1039.097 684 1060.748 696.5 1082.399 721.5 1082.399z"/>
<path id="Aldridge-Brownhills" fill="null" stroke="null" d="M809,1060.748L796.5 1039.097 771.5 1039.097 759 1060.748 771.5 1082.399 796.5 1082.399z"/>
<path id="Shropshire North" fill="null" stroke="null" d="M621.5,1082.399L609 1060.748 584 1060.748 571.5 1082.399 584 1104.05 609 1104.05z"/>
<path id="Wolverhampton South West" fill="null" stroke="null" d="M696.5,1082.399L684 1060.748 659 1060.748 646.5 1082.399 659 1104.05 684 1104.05z"/>
<path id="Cannock Chase" fill="null" stroke="null" d="M771.5,1082.399L759 1060.748 734 1060.748 721.5 1082.399 734 1104.05 759 1104.05z"/>
<path id="Nuneaton" fill="null" stroke="null" d="M846.5,1082.399L834 1060.748 809 1060.748 796.5 1082.399 809 1104.05 834 1104.05z"/>
<path id="Telford" fill="null" stroke="null" d="M659,1104.05L646.5 1082.399 621.5 1082.399 609 1104.05 621.5 1125.701 646.5 1125.701z"/>
<path id="Walsall South" fill="null" stroke="null" d="M734,1104.05L721.5 1082.399 696.5 1082.399 684 1104.05 696.5 1125.701 721.5 1125.701z"/>
<path id="Sutton Coldfield" fill="null" stroke="null" d="M809,1104.05L796.5 1082.399 771.5 1082.399 759 1104.05 771.5 1125.701 796.5 1125.701z"/>
<path id="Shrewsbury and Atcham" fill="null" stroke="null" d="M621.5,1125.701L609 1104.05 584 1104.05 571.5 1125.701 584 1147.352 609 1147.352z"/>
<path id="Wolverhampton South East" fill="null" stroke="null" d="M696.5,1125.701L684 1104.05 659 1104.05 646.5 1125.701 659 1147.352 684 1147.352z"/>
<path id="Birmingham Erdington" fill="null" stroke="null" d="M771.5,1125.701L759 1104.05 734 1104.05 721.5 1125.701 734 1147.352 759 1147.352z"/>
<path id="Coventry North East" fill="null" stroke="null" d="M846.5,1125.701L834 1104.05 809 1104.05 796.5 1125.701 809 1147.352 834 1147.352z"/>
<path id="Dudley North" fill="null" stroke="null" d="M659,1147.352L646.5 1125.701 621.5 1125.701 609 1147.352 621.5 1169.003 646.5 1169.003z"/>
<path id="West Bromwich East" fill="null" stroke="null" d="M734,1147.352L721.5 1125.701 696.5 1125.701 684 1147.352 696.5 1169.003 721.5 1169.003z"/>
<path id="Meriden" fill="null" stroke="null" d="M809,1147.352L796.5 1125.701 771.5 1125.701 759 1147.352 771.5 1169.003 796.5 1169.003z"/>
<path id="Wrekin The" fill="null" stroke="null" d="M621.5,1169.003L609 1147.352 584 1147.352 571.5 1169.003 584 1190.654 609 1190.654z"/>
<path id="Warley" fill="null" stroke="null" d="M696.5,1169.003L684 1147.352 659 1147.352 646.5 1169.003 659 1190.654 684 1190.654z"/>
<path id="Birmingham Hodge Hill" fill="null" stroke="null" d="M771.5,1169.003L759 1147.352 734 1147.352 721.5 1169.003 734 1190.654 759 1190.654z"/>
<path id="Coventry North West" fill="null" stroke="null" d="M846.5,1169.003L834 1147.352 809 1147.352 796.5 1169.003 809 1190.654 834 1190.654z"/>
<path id="Dudley South" fill="null" stroke="null" d="M659,1190.654L646.5 1169.003 621.5 1169.003 609 1190.654 621.5 1212.305 646.5 1212.305z"/>
<path id="Birmingham Perry Barr" fill="null" stroke="null" d="M734,1190.654L721.5 1169.003 696.5 1169.003 684 1190.654 696.5 1212.305 721.5 1212.305z"/>
<path id="Coventry South" fill="null" stroke="null" d="M809,1190.654L796.5 1169.003 771.5 1169.003 759 1190.654 771.5 1212.305 796.5 1212.305z"/>
<path id="Ludlow" fill="null" stroke="null" d="M621.5,1212.305L609 1190.654 584 1190.654 571.5 1212.305 584 1233.956 609 1233.956z"/>
<path id="Birmingham Selly Oak" fill="null" stroke="null" d="M696.5,1212.305L684 1190.654 659 1190.654 646.5 1212.305 659 1233.956 684 1233.956z"/>
<path id="Birmingham Yardley" fill="null" stroke="null" d="M771.5,1212.305L759 1190.654 734 1190.654 721.5 1212.305 734 1233.956 759 1233.956z"/>
<path id="West Bromwich West" fill="null" stroke="null" d="M659,1233.956L646.5 1212.305 621.5 1212.305 609 1233.956 621.5 1255.607 646.5 1255.607z"/>
<path id="Birmingham Ladywood" fill="null" stroke="null" d="M734,1233.956L721.5 1212.305 696.5 1212.305 684 1233.956 696.5 1255.607 721.5 1255.607z"/>
<path id="Rugby" fill="null" stroke="null" d="M809,1233.956L796.5 1212.305 771.5 1212.305 759 1233.956 771.5 1255.607 796.5 1255.607z"/>
<path id="Wyre Forest" fill="null" stroke="null" d="M621.5,1255.607L609 1233.956 584 1233.956 571.5 1255.607 584 1277.258 609 1277.258z"/>
<path id="Halesowen and Rowley Regis" fill="null" stroke="null" d="M696.5,1255.607L684 1233.956 659 1233.956 646.5 1255.607 659 1277.258 684 1277.258z"/>
<path id="Solihull" fill="null" stroke="null" d="M771.5,1255.607L759 1233.956 734 1233.956 721.5 1255.607 734 1277.258 759 1277.258z"/>
<path id="Stourbridge" fill="null" stroke="null" d="M659,1277.258L646.5 1255.607 621.5 1255.607 609 1277.258 621.5 1298.909 646.5 1298.909z"/>
<path id="Birmingham Hall Green" fill="null" stroke="null" d="M734,1277.258L721.5 1255.607 696.5 1255.607 684 1277.258 696.5 1298.909 721.5 1298.909z"/>
<path id="Warwick and Leamington" fill="null" stroke="null" d="M809,1277.258L796.5 1255.607 771.5 1255.607 759 1277.258 771.5 1298.909 796.5 1298.909z"/>
<path id="Herefordshire North" fill="null" stroke="null" d="M621.5,1298.909L609 1277.258 584 1277.258 571.5 1298.909 584 1320.56 609 1320.56z"/>
<path id="Birmingham Northfield" fill="null" stroke="null" d="M696.5,1298.909L684 1277.258 659 1277.258 646.5 1298.909 659 1320.56 684 1320.56z"/>
<path id="Kenilworth and Southam" fill="null" stroke="null" d="M771.5,1298.909L759 1277.258 734 1277.258 721.5 1298.909 734 1320.56 759 1320.56z"/>
<path id="Birmingham Edgbaston" fill="null" stroke="null" d="M659,1320.56L646.5 1298.909 621.5 1298.909 609 1320.56 621.5 1342.211 646.5 1342.211z"/>
<path id="Bromsgrove" fill="null" stroke="null" d="M734,1320.56L721.5 1298.909 696.5 1298.909 684 1320.56 696.5 1342.211 721.5 1342.211z"/>
<path id="Redditch" fill="null" stroke="null" d="M696.5,1342.211L684 1320.56 659 1320.56 646.5 1342.211 659 1363.862 684 1363.862z"/>
<path id="Stratford-on-Avon" fill="null" stroke="null" d="M771.5,1342.211L759 1320.56 734 1320.56 721.5 1342.211 734 1363.862 759 1363.862z"/>
<path id="Worcester" fill="null" stroke="null" d="M659,1363.862L646.5 1342.211 621.5 1342.211 609 1363.862 621.5 1385.513 646.5 1385.513z"/>
<path id="Worcestershire Mid" fill="null" stroke="null" d="M734,1363.862L721.5 1342.211 696.5 1342.211 684 1363.862 696.5 1385.513 721.5 1385.513z"/>
<path id="Worcestershire West" fill="null" stroke="null" d="M696.5,1385.513L684 1363.862 659 1363.862 646.5 1385.513 659 1407.164 684 1407.164z"/>
<path id="Hereford and Herefordshire South" fill="null" stroke="null" d="M659,1407.164L646.5 1385.513 621.5 1385.513 609 1407.164 621.5 1428.815 646.5 1428.815z"/>

<path id="High Peak" fill="null" stroke="null" d="M884,974.144L871.5 952.493 846.5 952.493 834 974.144 846.5 995.795 871.5 995.795z"/>
<path id="Mansfield" fill="null" stroke="null" d="M1034,974.144L1021.5 952.493 996.5 952.493 984 974.144 996.5 995.795 1021.5 995.795z"/>
<path id="Derbyshire North East" fill="null" stroke="null" d="M921.5,995.795L909 974.144 884 974.144 871.5 995.795 884 1017.446 909 1017.446z"/>
<path id="Bolsover" fill="null" stroke="null" d="M996.5,995.795L984 974.144 959 974.144 946.5 995.795 959 1017.446 984 1017.446z"/>
<path id="Bassetlaw" fill="null" stroke="null" d="M1071.5,995.795L1059 974.144 1034 974.144 1021.5 995.795 1034 1017.446 1059 1017.446z"/>
<path id="Derbyshire Dales" fill="null" stroke="null" d="M884,1017.446L871.5 995.795 846.5 995.795 834 1017.446 846.5 1039.097 871.5 1039.097z"/>
<path id="Chesterfield" fill="null" stroke="null" d="M959,1017.446L946.5 995.795 921.5 995.795 909 1017.446 921.5 1039.097 946.5 1039.097z"/>
<path id="Sherwood" fill="null" stroke="null" d="M1034,1017.446L1021.5 995.795 996.5 995.795 984 1017.446 996.5 1039.097 1021.5 1039.097z"/>
<path id="Newark" fill="null" stroke="null" d="M1109,1017.446L1096.5 995.795 1071.5 995.795 1059 1017.446 1071.5 1039.097 1096.5 1039.097z"/>
<path id="Derbyshire Mid" fill="null" stroke="null" d="M921.5,1039.097L909 1017.446 884 1017.446 871.5 1039.097 884 1060.748 909 1060.748z"/>
<path id="Ashfield" fill="null" stroke="null" d="M996.5,1039.097L984 1017.446 959 1017.446 946.5 1039.097 959 1060.748 984 1060.748z"/>
<path id="Nottingham North" fill="null" stroke="null" d="M1071.5,1039.097L1059 1017.446 1034 1017.446 1021.5 1039.097 1034 1060.748 1059 1060.748z"/>
<path id="Gainsborough" fill="null" stroke="null" d="M1146.5,1039.097L1134 1017.446 1109 1017.446 1096.5 1039.097 1109 1060.748 1134 1060.748z"/>
<path id="Derby North" fill="null" stroke="null" d="M884,1060.748L871.5 1039.097 846.5 1039.097 834 1060.748 846.5 1082.399 871.5 1082.399z"/>
<path id="Amber Valley" fill="null" stroke="null" d="M959,1060.748L946.5 1039.097 921.5 1039.097 909 1060.748 921.5 1082.399 946.5 1082.399z"/>
<path id="Broxtowe" fill="null" stroke="null" d="M1034,1060.748L1021.5 1039.097 996.5 1039.097 984 1060.748 996.5 1082.399 1021.5 1082.399z"/>
<path id="Gedling" fill="null" stroke="null" d="M1109,1060.748L1096.5 1039.097 1071.5 1039.097 1059 1060.748 1071.5 1082.399 1096.5 1082.399z"/>
<path id="Derby South" fill="null" stroke="null" d="M921.5,1082.399L909 1060.748 884 1060.748 871.5 1082.399 884 1104.05 909 1104.05z"/>
<path id="Erewash" fill="null" stroke="null" d="M996.5,1082.399L984 1060.748 959 1060.748 946.5 1082.399 959 1104.05 984 1104.05z"/>
<path id="Nottingham East" fill="null" stroke="null" d="M1071.5,1082.399L1059 1060.748 1034 1060.748 1021.5 1082.399 1034 1104.05 1059 1104.05z"/>
<path id="Louth and Horncastle" fill="null" stroke="null" d="M1146.5,1082.399L1134 1060.748 1109 1060.748 1096.5 1082.399 1109 1104.05 1134 1104.05z"/>
<path id="Derbyshire South" fill="null" stroke="null" d="M884,1104.05L871.5 1082.399 846.5 1082.399 834 1104.05 846.5 1125.701 871.5 1125.701z"/>
<path id="Loughborough" fill="null" stroke="null" d="M959,1104.05L946.5 1082.399 921.5 1082.399 909 1104.05 921.5 1125.701 946.5 1125.701z"/>
<path id="Nottingham South" fill="null" stroke="null" d="M1034,1104.05L1021.5 1082.399 996.5 1082.399 984 1104.05 996.5 1125.701 1021.5 1125.701z"/>
<path id="Lincoln" fill="null" stroke="null" d="M1109,1104.05L1096.5 1082.399 1071.5 1082.399 1059 1104.05 1071.5 1125.701 1096.5 1125.701z"/>
<path id="Leicestershire North West" fill="null" stroke="null" d="M921.5,1125.701L909 1104.05 884 1104.05 871.5 1125.701 884 1147.352 909 1147.352z"/>
<path id="Charnwood" fill="null" stroke="null" d="M996.5,1125.701L984 1104.05 959 1104.05 946.5 1125.701 959 1147.352 984 1147.352z"/>
<path id="Rushcliffe" fill="null" stroke="null" d="M1071.5,1125.701L1059 1104.05 1034 1104.05 1021.5 1125.701 1034 1147.352 1059 1147.352z"/>
<path id="Boston and Skegness" fill="null" stroke="null" d="M1146.5,1125.701L1134 1104.05 1109 1104.05 1096.5 1125.701 1109 1147.352 1134 1147.352z"/>
<path id="Bosworth" fill="null" stroke="null" d="M884,1147.352L871.5 1125.701 846.5 1125.701 834 1147.352 846.5 1169.003 871.5 1169.003z"/>
<path id="Leicester East" fill="null" stroke="null" d="M959,1147.352L946.5 1125.701 921.5 1125.701 909 1147.352 921.5 1169.003 946.5 1169.003z"/>
<path id="Corby" fill="null" stroke="null" d="M1034,1147.352L1021.5 1125.701 996.5 1125.701 984 1147.352 996.5 1169.003 1021.5 1169.003z"/>
<path id="Sleaford and North Hykeham" fill="null" stroke="null" d="M1109,1147.352L1096.5 1125.701 1071.5 1125.701 1059 1147.352 1071.5 1169.003 1096.5 1169.003z"/>
<path id="Leicester West" fill="null" stroke="null" d="M921.5,1169.003L909 1147.352 884 1147.352 871.5 1169.003 884 1190.654 909 1190.654z"/>
<path id="Kettering" fill="null" stroke="null" d="M996.5,1169.003L984 1147.352 959 1147.352 946.5 1169.003 959 1190.654 984 1190.654z"/>
<path id="Rutland and Melton" fill="null" stroke="null" d="M1071.5,1169.003L1059 1147.352 1034 1147.352 1021.5 1169.003 1034 1190.654 1059 1190.654z"/>
<path id="South Holland and The Deepings" fill="null" stroke="null" d="M1146.5,1169.003L1134 1147.352 1109 1147.352 1096.5 1169.003 1109 1190.654 1134 1190.654z"/>
<path id="Leicestershire South" fill="null" stroke="null" d="M884,1190.654L871.5 1169.003 846.5 1169.003 834 1190.654 846.5 1212.305 871.5 1212.305z"/>
<path id="Harborough" fill="null" stroke="null" d="M959,1190.654L946.5 1169.003 921.5 1169.003 909 1190.654 921.5 1212.305 946.5 1212.305z"/>
<path id="Grantham and Stamford" fill="null" stroke="null" d="M1109,1190.654L1096.5 1169.003 1071.5 1169.003 1059 1190.654 1071.5 1212.305 1096.5 1212.305z"/>
<path id="Daventry" fill="null" stroke="null" d="M846.5,1212.305L834 1190.654 809 1190.654 796.5 1212.305 809 1233.956 834 1233.956z"/>
<path id="Leicester South" fill="null" stroke="null" d="M921.5,1212.305L909 1190.654 884 1190.654 871.5 1212.305 884 1233.956 909 1233.956z"/>
<path id="Wellingborough" fill="null" stroke="null" d="M884,1233.956L871.5 1212.305 846.5 1212.305 834 1233.956 846.5 1255.607 871.5 1255.607z"/>
<path id="Northampton North" fill="null" stroke="null" d="M846.5,1255.607L834 1233.956 809 1233.956 796.5 1255.607 809 1277.258 834 1277.258z"/>
<path id="Northampton South" fill="null" stroke="null" d="M846.5,1298.909L834 1277.258 809 1277.258 796.5 1298.909 809 1320.56 834 1320.56z"/>
<path id="Northamptonshire South" fill="null" stroke="null" d="M809,1320.56L796.5 1298.909 771.5 1298.909 759 1320.56 771.5 1342.211 796.5 1342.211z"/>

<path id="Delyn" fill="null" stroke="null" d="M546.5,1039.097L534 1017.446 509 1017.446 496.5 1039.097 509 1060.748 534 1060.748z"/>
<path id="Ynys Mon" fill="null" stroke="null" d="M434,1060.748L421.5 1039.097 396.5 1039.097 384 1060.748 396.5 1082.399 421.5 1082.399z"/>
<path id="Alyn and Deeside" fill="null" stroke="null" d="M584,1060.748L571.5 1039.097 546.5 1039.097 534 1060.748 546.5 1082.399 571.5 1082.399z"/>
<path id="Vale Of Clwyd" fill="null" stroke="null" d="M546.5,1082.399L534 1060.748 509 1060.748 496.5 1082.399 509 1104.05 534 1104.05z"/>
<path id="Aberconwy" fill="null" stroke="null" d="M509,1104.05L496.5 1082.399 471.5 1082.399 459 1104.05 471.5 1125.701 496.5 1125.701z"/>
<path id="Wrexham" fill="null" stroke="null" d="M584,1104.05L571.5 1082.399 546.5 1082.399 534 1104.05 546.5 1125.701 571.5 1125.701z"/>
<path id="Arfon" fill="null" stroke="null" d="M471.5,1125.701L459 1104.05 434 1104.05 421.5 1125.701 434 1147.352 459 1147.352z"/>
<path id="Clwyd West" fill="null" stroke="null" d="M546.5,1125.701L534 1104.05 509 1104.05 496.5 1125.701 509 1147.352 534 1147.352z"/>
<path id="Dwyfor Meirionnydd" fill="null" stroke="null" d="M509,1147.352L496.5 1125.701 471.5 1125.701 459 1147.352 471.5 1169.003 496.5 1169.003z"/>
<path id="Clwyd South" fill="null" stroke="null" d="M584,1147.352L571.5 1125.701 546.5 1125.701 534 1147.352 546.5 1169.003 571.5 1169.003z"/>
<path id="Montgomeryshire" fill="null" stroke="null" d="M584,1190.654L571.5 1169.003 546.5 1169.003 534 1190.654 546.5 1212.305 571.5 1212.305z"/>
<path id="Brecon and Radnorshire" fill="null" stroke="null" d="M584,1233.956L571.5 1212.305 546.5 1212.305 534 1233.956 546.5 1255.607 571.5 1255.607z"/>
<path id="Ceredigion" fill="null" stroke="null" d="M584,1277.258L571.5 1255.607 546.5 1255.607 534 1277.258 546.5 1298.909 571.5 1298.909z"/>
<path id="Blaenau Gwent" fill="null" stroke="null" d="M584,1320.56L571.5 1298.909 546.5 1298.909 534 1320.56 546.5 1342.211 571.5 1342.211z"/>
<path id="Merthyr Tydfil and Rhymney" fill="null" stroke="null" d="M546.5,1342.211L534 1320.56 509 1320.56 496.5 1342.211 509 1363.862 534 1363.862z"/>
<path id="Torfaen" fill="null" stroke="null" d="M621.5,1342.211L609 1320.56 584 1320.56 571.5 1342.211 584 1363.862 609 1363.862z"/>
<path id="Rhondda" fill="null" stroke="null" d="M509,1363.862L496.5 1342.211 471.5 1342.211 459 1363.862 471.5 1385.513 496.5 1385.513z"/>
<path id="Islwyn" fill="null" stroke="null" d="M584,1363.862L571.5 1342.211 546.5 1342.211 534 1363.862 546.5 1385.513 571.5 1385.513z"/>
<path id="Neath" fill="null" stroke="null" d="M471.5,1385.513L459 1363.862 434 1363.862 421.5 1385.513 434 1407.164 459 1407.164z"/>
<path id="Cynon Valley" fill="null" stroke="null" d="M546.5,1385.513L534 1363.862 509 1363.862 496.5 1385.513 509 1407.164 534 1407.164z"/>
<path id="Monmouth" fill="null" stroke="null" d="M621.5,1385.513L609 1363.862 584 1363.862 571.5 1385.513 584 1407.164 609 1407.164z"/>
<path id="Preseli Pembrokeshire" fill="null" stroke="null" d="M359,1407.164L346.5 1385.513 321.5 1385.513 309 1407.164 321.5 1428.815 346.5 1428.815z"/>
<path id="Carmarthen East and Dinefwr" fill="null" stroke="null" d="M434,1407.164L421.5 1385.513 396.5 1385.513 384 1407.164 396.5 1428.815 421.5 1428.815z"/>
<path id="Pontypridd" fill="null" stroke="null" d="M509,1407.164L496.5 1385.513 471.5 1385.513 459 1407.164 471.5 1428.815 496.5 1428.815z"/>
<path id="Caerphilly" fill="null" stroke="null" d="M584,1407.164L571.5 1385.513 546.5 1385.513 534 1407.164 546.5 1428.815 571.5 1428.815z"/>
<path id="Llanelli" fill="null" stroke="null" d="M396.5,1428.815L384 1407.164 359 1407.164 346.5 1428.815 359 1450.466 384 1450.466z"/>
<path id="Aberavon" fill="null" stroke="null" d="M471.5,1428.815L459 1407.164 434 1407.164 421.5 1428.815 434 1450.466 459 1450.466z"/>
<path id="Cardiff Central" fill="null" stroke="null" d="M546.5,1428.815L534 1407.164 509 1407.164 496.5 1428.815 509 1450.466 534 1450.466z"/>
<path id="Newport East" fill="null" stroke="null" d="M621.5,1428.815L609 1407.164 584 1407.164 571.5 1428.815 584 1450.466 609 1450.466z"/>
<path id="Carmarthen West and Pembrokeshire South" fill="null" stroke="null" d="M359,1450.466L346.5 1428.815 321.5 1428.815 309 1450.466 321.5 1472.117 346.5 1472.117z"/>
<path id="Swansea West" fill="null" stroke="null" d="M434,1450.466L421.5 1428.815 396.5 1428.815 384 1450.466 396.5 1472.117 421.5 1472.117z"/>
<path id="Cardiff West" fill="null" stroke="null" d="M509,1450.466L496.5 1428.815 471.5 1428.815 459 1450.466 471.5 1472.117 496.5 1472.117z"/>
<path id="Cardiff North" fill="null" stroke="null" d="M584,1450.466L571.5 1428.815 546.5 1428.815 534 1450.466 546.5 1472.117 571.5 1472.117z"/>
<path id="Gower" fill="null" stroke="null" d="M396.5,1472.117L384 1450.466 359 1450.466 346.5 1472.117 359 1493.768 384 1493.768z"/>
<path id="Ogmore" fill="null" stroke="null" d="M471.5,1472.117L459 1450.466 434 1450.466 421.5 1472.117 434 1493.768 459 1493.768z"/>
<path id="Cardiff South and Penarth" fill="null" stroke="null" d="M546.5,1472.117L534 1450.466 509 1450.466 496.5 1472.117 509 1493.768 534 1493.768z"/>
<path id="Swansea East" fill="null" stroke="null" d="M434,1493.768L421.5 1472.117 396.5 1472.117 384 1493.768 396.5 1515.419 421.5 1515.419z"/>
<path id="Vale Of Glamorgan" fill="null" stroke="null" d="M509,1493.768L496.5 1472.117 471.5 1472.117 459 1493.768 471.5 1515.419 496.5 1515.419z"/>
<path id="Newport West" fill="null" stroke="null" d="M584,1493.768L571.5 1472.117 546.5 1472.117 534 1493.768 546.5 1515.419 571.5 1515.419z"/>
<path id="Bridgend" fill="null" stroke="null" d="M471.5,1515.419L459 1493.768 434 1493.768 421.5 1515.419 434 1537.07 459 1537.07z"/>

<path id="Norfolk Mid" fill="null" stroke="null" d="M1034,1190.654L1021.5 1169.003 996.5 1169.003 984 1190.654 996.5 1212.305 1021.5 1212.305z"/>
<path id="Norfolk North West" fill="null" stroke="null" d="M1184,1190.654L1171.5 1169.003 1146.5 1169.003 1134 1190.654 1146.5 1212.305 1171.5 1212.305z"/>
<path id="Cambridgeshire North West" fill="null" stroke="null" d="M996.5,1212.305L984 1190.654 959 1190.654 946.5 1212.305 959 1233.956 984 1233.956z"/>
<path id="Peterborough" fill="null" stroke="null" d="M1071.5,1212.305L1059 1190.654 1034 1190.654 1021.5 1212.305 1034 1233.956 1059 1233.956z"/>
<path id="Cambridgeshire North East" fill="null" stroke="null" d="M1146.5,1212.305L1134 1190.654 1109 1190.654 1096.5 1212.305 1109 1233.956 1134 1233.956z"/>
<path id="Broadland" fill="null" stroke="null" d="M1221.5,1212.305L1209 1190.654 1184 1190.654 1171.5 1212.305 1184 1233.956 1209 1233.956z"/>
<path id="Huntingdon" fill="null" stroke="null" d="M959,1233.956L946.5 1212.305 921.5 1212.305 909 1233.956 921.5 1255.607 946.5 1255.607z"/>
<path id="Cambridgeshire South" fill="null" stroke="null" d="M1034,1233.956L1021.5 1212.305 996.5 1212.305 984 1233.956 996.5 1255.607 1021.5 1255.607z"/>
<path id="Hertfordshire North East" fill="null" stroke="null" d="M1109,1233.956L1096.5 1212.305 1071.5 1212.305 1059 1233.956 1071.5 1255.607 1096.5 1255.607z"/>
<path id="Norwich North" fill="null" stroke="null" d="M1184,1233.956L1171.5 1212.305 1146.5 1212.305 1134 1233.956 1146.5 1255.607 1171.5 1255.607z"/>
<path id="Norfolk North" fill="null" stroke="null" d="M1259,1233.956L1246.5 1212.305 1221.5 1212.305 1209 1233.956 1221.5 1255.607 1246.5 1255.607z"/>
<path id="Bedford" fill="null" stroke="null" d="M921.5,1255.607L909 1233.956 884 1233.956 871.5 1255.607 884 1277.258 909 1277.258z"/>
<path id="Stevenage" fill="null" stroke="null" d="M996.5,1255.607L984 1233.956 959 1233.956 946.5 1255.607 959 1277.258 984 1277.258z"/>
<path id="Hemel Hempstead" fill="null" stroke="null" d="M1071.5,1255.607L1059 1233.956 1034 1233.956 1021.5 1255.607 1034 1277.258 1059 1277.258z"/>
<path id="Norfolk South West" fill="null" stroke="null" d="M1146.5,1255.607L1134 1233.956 1109 1233.956 1096.5 1255.607 1109 1277.258 1134 1277.258z"/>
<path id="Norwich South" fill="null" stroke="null" d="M1221.5,1255.607L1209 1233.956 1184 1233.956 1171.5 1255.607 1184 1277.258 1209 1277.258z"/>
<path id="Great Yarmouth" fill="null" stroke="null" d="M1296.5,1255.607L1284 1233.956 1259 1233.956 1246.5 1255.607 1259 1277.258 1284 1277.258z"/>
<path id="Bedfordshire North East" fill="null" stroke="null" d="M884,1277.258L871.5 1255.607 846.5 1255.607 834 1277.258 846.5 1298.909 871.5 1298.909z"/>
<path id="Hitchin and Harpenden" fill="null" stroke="null" d="M959,1277.258L946.5 1255.607 921.5 1255.607 909 1277.258 921.5 1298.909 946.5 1298.909z"/>
<path id="St Albans" fill="null" stroke="null" d="M1034,1277.258L1021.5 1255.607 996.5 1255.607 984 1277.258 996.5 1298.909 1021.5 1298.909z"/>
<path id="Hertford and Stortford" fill="null" stroke="null" d="M1109,1277.258L1096.5 1255.607 1071.5 1255.607 1059 1277.258 1071.5 1298.909 1096.5 1298.909z"/>
<path id="Suffolk West" fill="null" stroke="null" d="M1184,1277.258L1171.5 1255.607 1146.5 1255.607 1134 1277.258 1146.5 1298.909 1171.5 1298.909z"/>
<path id="Norfolk South" fill="null" stroke="null" d="M1259,1277.258L1246.5 1255.607 1221.5 1255.607 1209 1277.258 1221.5 1298.909 1246.5 1298.909z"/>
<path id="Waveney" fill="null" stroke="null" d="M1334,1277.258L1321.5 1255.607 1296.5 1255.607 1284 1277.258 1296.5 1298.909 1321.5 1298.909z"/>
<path id="Luton South" fill="null" stroke="null" d="M921.5,1298.909L909 1277.258 884 1277.258 871.5 1298.909 884 1320.56 909 1320.56z"/>
<path id="Welwyn Hatfield" fill="null" stroke="null" d="M996.5,1298.909L984 1277.258 959 1277.258 946.5 1298.909 959 1320.56 984 1320.56z"/>
<path id="Broxbourne" fill="null" stroke="null" d="M1071.5,1298.909L1059 1277.258 1034 1277.258 1021.5 1298.909 1034 1320.56 1059 1320.56z"/>
<path id="Cambridge" fill="null" stroke="null" d="M1146.5,1298.909L1134 1277.258 1109 1277.258 1096.5 1298.909 1109 1320.56 1134 1320.56z"/>
<path id="Bury St Edmunds" fill="null" stroke="null" d="M1221.5,1298.909L1209 1277.258 1184 1277.258 1171.5 1298.909 1184 1320.56 1209 1320.56z"/>
<path id="Ipswich" fill="null" stroke="null" d="M1296.5,1298.909L1284 1277.258 1259 1277.258 1246.5 1298.909 1259 1320.56 1284 1320.56z"/>
<path id="Suffolk Coastal" fill="null" stroke="null" d="M1371.5,1298.909L1359 1277.258 1334 1277.258 1321.5 1298.909 1334 1320.56 1359 1320.56z"/>
<path id="Luton North" fill="null" stroke="null" d="M884,1320.56L871.5 1298.909 846.5 1298.909 834 1320.56 846.5 1342.211 871.5 1342.211z"/>
<path id="Hertsmere" fill="null" stroke="null" d="M959,1320.56L946.5 1298.909 921.5 1298.909 909 1320.56 921.5 1342.211 946.5 1342.211z"/>
<path id="Harlow" fill="null" stroke="null" d="M1109,1320.56L1096.5 1298.909 1071.5 1298.909 1059 1320.56 1071.5 1342.211 1096.5 1342.211z"/>
<path id="Cambridgeshire South East" fill="null" stroke="null" d="M1184,1320.56L1171.5 1298.909 1146.5 1298.909 1134 1320.56 1146.5 1342.211 1171.5 1342.211z"/>
<path id="Suffolk South" fill="null" stroke="null" d="M1259,1320.56L1246.5 1298.909 1221.5 1298.909 1209 1320.56 1221.5 1342.211 1246.5 1342.211z"/>
<path id="Suffolk Central and Ipswich North" fill="null" stroke="null" d="M1334,1320.56L1321.5 1298.909 1296.5 1298.909 1284 1320.56 1296.5 1342.211 1321.5 1342.211z"/>
<path id="Bedfordshire Mid" fill="null" stroke="null" d="M846.5,1342.211L834 1320.56 809 1320.56 796.5 1342.211 809 1363.862 834 1363.862z"/>
<path id="Watford" fill="null" stroke="null" d="M921.5,1342.211L909 1320.56 884 1320.56 871.5 1342.211 884 1363.862 909 1363.862z"/>
<path id="Epping Forest" fill="null" stroke="null" d="M1146.5,1342.211L1134 1320.56 1109 1320.56 1096.5 1342.211 1109 1363.862 1134 1363.862z"/>
<path id="Braintree" fill="null" stroke="null" d="M1221.5,1342.211L1209 1320.56 1184 1320.56 1171.5 1342.211 1184 1363.862 1209 1363.862z"/>
<path id="Harwich and Essex North" fill="null" stroke="null" d="M1296.5,1342.211L1284 1320.56 1259 1320.56 1246.5 1342.211 1259 1363.862 1284 1363.862z"/>
<path id="Clacton" fill="null" stroke="null" d="M1371.5,1342.211L1359 1320.56 1334 1320.56 1321.5 1342.211 1334 1363.862 1359 1363.862z"/>
<path id="Hertfordshire South West" fill="null" stroke="null" d="M884,1363.862L871.5 1342.211 846.5 1342.211 834 1363.862 846.5 1385.513 871.5 1385.513z"/>
<path id="Brentwood and Ongar" fill="null" stroke="null" d="M1184,1363.862L1171.5 1342.211 1146.5 1342.211 1134 1363.862 1146.5 1385.513 1171.5 1385.513z"/>
<path id="Colchester" fill="null" stroke="null" d="M1259,1363.862L1246.5 1342.211 1221.5 1342.211 1209 1363.862 1221.5 1385.513 1246.5 1385.513z"/>
<path id="Witham" fill="null" stroke="null" d="M1334,1363.862L1321.5 1342.211 1296.5 1342.211 1284 1363.862 1296.5 1385.513 1321.5 1385.513z"/>
<path id="Bedfordshire South West" fill="null" stroke="null" d="M846.5,1385.513L834 1363.862 809 1363.862 796.5 1385.513 809 1407.164 834 1407.164z"/>
<path id="Saffron Walden" fill="null" stroke="null" d="M1221.5,1385.513L1209 1363.862 1184 1363.862 1171.5 1385.513 1184 1407.164 1209 1407.164z"/>
<path id="Rayleigh and Wickford" fill="null" stroke="null" d="M1296.5,1385.513L1284 1363.862 1259 1363.862 1246.5 1385.513 1259 1407.164 1284 1407.164z"/>
<path id="Maldon" fill="null" stroke="null" d="M1371.5,1385.513L1359 1363.862 1334 1363.862 1321.5 1385.513 1334 1407.164 1359 1407.164z"/>
<path id="Chelmsford" fill="null" stroke="null" d="M1259,1407.164L1246.5 1385.513 1221.5 1385.513 1209 1407.164 1221.5 1428.815 1246.5 1428.815z"/>
<path id="Southend West" fill="null" stroke="null" d="M1334,1407.164L1321.5 1385.513 1296.5 1385.513 1284 1407.164 1296.5 1428.815 1321.5 1428.815z"/>
<path id="Basildon and Billericay" fill="null" stroke="null" d="M1296.5,1428.815L1284 1407.164 1259 1407.164 1246.5 1428.815 1259 1450.466 1284 1450.466z"/>
<path id="Rochford and Southend East" fill="null" stroke="null" d="M1371.5,1428.815L1359 1407.164 1334 1407.164 1321.5 1428.815 1334 1450.466 1359 1450.466z"/>
<path id="Basildon South and Thurrock East" fill="null" stroke="null" d="M1334,1450.466L1321.5 1428.815 1296.5 1428.815 1284 1450.466 1296.5 1472.117 1321.5 1472.117z"/>
<path id="Castle Point" fill="null" stroke="null" d="M1371.5,1472.117L1359 1450.466 1334 1450.466 1321.5 1472.117 1334 1493.768 1359 1493.768z"/>
<path id="Thurrock" fill="null" stroke="null" d="M1334,1493.768L1321.5 1472.117 1296.5 1472.117 1284 1493.768 1296.5 1515.419 1321.5 1515.419z"/>

<path id="Chipping Barnet" fill="null" stroke="null" d="M1034,1320.56L1021.5 1298.909 996.5 1298.909 984 1320.56 996.5 1342.211 1021.5 1342.211z"/>
<path id="Hendon" fill="null" stroke="null" d="M996.5,1342.211L984 1320.56 959 1320.56 946.5 1342.211 959 1363.862 984 1363.862z"/>
<path id="Enfield Southgate" fill="null" stroke="null" d="M1071.5,1342.211L1059 1320.56 1034 1320.56 1021.5 1342.211 1034 1363.862 1059 1363.862z"/>
<path id="Harrow East" fill="null" stroke="null" d="M959,1363.862L946.5 1342.211 921.5 1342.211 909 1363.862 921.5 1385.513 946.5 1385.513z"/>
<path id="Finchley and Golders Green" fill="null" stroke="null" d="M1034,1363.862L1021.5 1342.211 996.5 1342.211 984 1363.862 996.5 1385.513 1021.5 1385.513z"/>
<path id="Enfield North" fill="null" stroke="null" d="M1109,1363.862L1096.5 1342.211 1071.5 1342.211 1059 1363.862 1071.5 1385.513 1096.5 1385.513z"/>
<path id="Harrow West" fill="null" stroke="null" d="M921.5,1385.513L909 1363.862 884 1363.862 871.5 1385.513 884 1407.164 909 1407.164z"/>
<path id="Brent Central" fill="null" stroke="null" d="M996.5,1385.513L984 1363.862 959 1363.862 946.5 1385.513 959 1407.164 984 1407.164z"/>
<path id="Tottenham" fill="null" stroke="null" d="M1071.5,1385.513L1059 1363.862 1034 1363.862 1021.5 1385.513 1034 1407.164 1059 1407.164z"/>
<path id="Edmonton" fill="null" stroke="null" d="M1146.5,1385.513L1134 1363.862 1109 1363.862 1096.5 1385.513 1109 1407.164 1134 1407.164z"/>
<path id="Ruislip Northwood and Pinner" fill="null" stroke="null" d="M884,1407.164L871.5 1385.513 846.5 1385.513 834 1407.164 846.5 1428.815 871.5 1428.815z"/>
<path id="Brent North" fill="null" stroke="null" d="M959,1407.164L946.5 1385.513 921.5 1385.513 909 1407.164 921.5 1428.815 946.5 1428.815z"/>
<path id="Islington North" fill="null" stroke="null" d="M1034,1407.164L1021.5 1385.513 996.5 1385.513 984 1407.164 996.5 1428.815 1021.5 1428.815z"/>
<path id="Walthamstow" fill="null" stroke="null" d="M1109,1407.164L1096.5 1385.513 1071.5 1385.513 1059 1407.164 1071.5 1428.815 1096.5 1428.815z"/>
<path id="Chingford and Woodford Green" fill="null" stroke="null" d="M1184,1407.164L1171.5 1385.513 1146.5 1385.513 1134 1407.164 1146.5 1428.815 1171.5 1428.815z"/>
<path id="Ealing Central and Acton" fill="null" stroke="null" d="M921.5,1428.815L909 1407.164 884 1407.164 871.5 1428.815 884 1450.466 909 1450.466z"/>
<path id="Hornsey and Wood Green" fill="null" stroke="null" d="M996.5,1428.815L984 1407.164 959 1407.164 946.5 1428.815 959 1450.466 984 1450.466z"/>
<path id="Hackney North and Stoke Newington" fill="null" stroke="null" d="M1071.5,1428.815L1059 1407.164 1034 1407.164 1021.5 1428.815 1034 1450.466 1059 1450.466z"/>
<path id="Leyton and Wanstead" fill="null" stroke="null" d="M1146.5,1428.815L1134 1407.164 1109 1407.164 1096.5 1428.815 1109 1450.466 1134 1450.466z"/>
<path id="Ilford North" fill="null" stroke="null" d="M1221.5,1428.815L1209 1407.164 1184 1407.164 1171.5 1428.815 1184 1450.466 1209 1450.466z"/>
<path id="Ealing North" fill="null" stroke="null" d="M884,1450.466L871.5 1428.815 846.5 1428.815 834 1450.466 846.5 1472.117 871.5 1472.117z"/>
<path id="Hampstead and Kilburn" fill="null" stroke="null" d="M959,1450.466L946.5 1428.815 921.5 1428.815 909 1450.466 921.5 1472.117 946.5 1472.117z"/>
<path id="Holborn and St Pancras" fill="null" stroke="null" d="M1034,1450.466L1021.5 1428.815 996.5 1428.815 984 1450.466 996.5 1472.117 1021.5 1472.117z"/>
<path id="Hackney South and Shoreditch" fill="null" stroke="null" d="M1109,1450.466L1096.5 1428.815 1071.5 1428.815 1059 1450.466 1071.5 1472.117 1096.5 1472.117z"/>
<path id="West Ham" fill="null" stroke="null" d="M1184,1450.466L1171.5 1428.815 1146.5 1428.815 1134 1450.466 1146.5 1472.117 1171.5 1472.117z"/>
<path id="Ilford South" fill="null" stroke="null" d="M1259,1450.466L1246.5 1428.815 1221.5 1428.815 1209 1450.466 1221.5 1472.117 1246.5 1472.117z"/>
<path id="Uxbridge and South Ruislip" fill="null" stroke="null" d="M846.5,1472.117L834 1450.466 809 1450.466 796.5 1472.117 809 1493.768 834 1493.768z"/>
<path id="Brentford and Isleworth" fill="null" stroke="null" d="M921.5,1472.117L909 1450.466 884 1450.466 871.5 1472.117 884 1493.768 909 1493.768z"/>
<path id="Westminster North" fill="null" stroke="null" d="M996.5,1472.117L984 1450.466 959 1450.466 946.5 1472.117 959 1493.768 984 1493.768z"/>
<path id="Islington South and Finsbury" fill="null" stroke="null" d="M1071.5,1472.117L1059 1450.466 1034 1450.466 1021.5 1472.117 1034 1493.768 1059 1493.768z"/>
<path id="Bethnal Green and Bow" fill="null" stroke="null" d="M1146.5,1472.117L1134 1450.466 1109 1450.466 1096.5 1472.117 1109 1493.768 1134 1493.768z"/>
<path id="East Ham" fill="null" stroke="null" d="M1221.5,1472.117L1209 1450.466 1184 1450.466 1171.5 1472.117 1184 1493.768 1209 1493.768z"/>
<path id="Romford" fill="null" stroke="null" d="M1296.5,1472.117L1284 1450.466 1259 1450.466 1246.5 1472.117 1259 1493.768 1284 1493.768z"/>
<path id="Ealing Southall" fill="null" stroke="null" d="M884,1493.768L871.5 1472.117 846.5 1472.117 834 1493.768 846.5 1515.419 871.5 1515.419z"/>
<path id="Kensington" fill="null" stroke="null" d="M959,1493.768L946.5 1472.117 921.5 1472.117 909 1493.768 921.5 1515.419 946.5 1515.419z"/>
<path id="Cities Of London and Westminster" fill="null" stroke="null" d="M1034,1493.768L1021.5 1472.117 996.5 1472.117 984 1493.768 996.5 1515.419 1021.5 1515.419z"/>
<path id="Poplar and Limehouse" fill="null" stroke="null" d="M1109,1493.768L1096.5 1472.117 1071.5 1472.117 1059 1493.768 1071.5 1515.419 1096.5 1515.419z"/>
<path id="Greenwich and Woolwich" fill="null" stroke="null" d="M1184,1493.768L1171.5 1472.117 1146.5 1472.117 1134 1493.768 1146.5 1515.419 1171.5 1515.419z"/>
<path id="Barking" fill="null" stroke="null" d="M1259,1493.768L1246.5 1472.117 1221.5 1472.117 1209 1493.768 1221.5 1515.419 1246.5 1515.419z"/>
<path id="Hayes and Harlington" fill="null" stroke="null" d="M846.5,1515.419L834 1493.768 809 1493.768 796.5 1515.419 809 1537.07 834 1537.07z"/>
<path id="Richmond Park" fill="null" stroke="null" d="M921.5,1515.419L909 1493.768 884 1493.768 871.5 1515.419 884 1537.07 909 1537.07z"/>
<path id="Chelsea and Fulham" fill="null" stroke="null" d="M996.5,1515.419L984 1493.768 959 1493.768 946.5 1515.419 959 1537.07 984 1537.07z"/>
<path id="Bermondsey and Old Southwark" fill="null" stroke="null" d="M1071.5,1515.419L1059 1493.768 1034 1493.768 1021.5 1515.419 1034 1537.07 1059 1537.07z"/>
<path id="Lewisham Deptford" fill="null" stroke="null" d="M1146.5,1515.419L1134 1493.768 1109 1493.768 1096.5 1515.419 1109 1537.07 1134 1537.07z"/>
<path id="Old Bexley and Sidcup" fill="null" stroke="null" d="M1221.5,1515.419L1209 1493.768 1184 1493.768 1171.5 1515.419 1184 1537.07 1209 1537.07z"/>
<path id="Hornchurch and Upminster" fill="null" stroke="null" d="M1296.5,1515.419L1284 1493.768 1259 1493.768 1246.5 1515.419 1259 1537.07 1284 1537.07z"/>
<path id="Feltham and Heston" fill="null" stroke="null" d="M884,1537.07L871.5 1515.419 846.5 1515.419 834 1537.07 846.5 1558.721 871.5 1558.721z"/>
<path id="Hammersmith" fill="null" stroke="null" d="M959,1537.07L946.5 1515.419 921.5 1515.419 909 1537.07 921.5 1558.721 946.5 1558.721z"/>
<path id="Vauxhall" fill="null" stroke="null" d="M1034,1537.07L1021.5 1515.419 996.5 1515.419 984 1537.07 996.5 1558.721 1021.5 1558.721z"/>
<path id="Camberwell and Peckham" fill="null" stroke="null" d="M1109,1537.07L1096.5 1515.419 1071.5 1515.419 1059 1537.07 1071.5 1558.721 1096.5 1558.721z"/>
<path id="Eltham" fill="null" stroke="null" d="M1184,1537.07L1171.5 1515.419 1146.5 1515.419 1134 1537.07 1146.5 1558.721 1171.5 1558.721z"/>
<path id="Dagenham and Rainham" fill="null" stroke="null" d="M1259,1537.07L1246.5 1515.419 1221.5 1515.419 1209 1537.07 1221.5 1558.721 1246.5 1558.721z"/>
<path id="Putney" fill="null" stroke="null" d="M921.5,1558.721L909 1537.07 884 1537.07 871.5 1558.721 884 1580.372 909 1580.372z"/>
<path id="Battersea" fill="null" stroke="null" d="M996.5,1558.721L984 1537.07 959 1537.07 946.5 1558.721 959 1580.372 984 1580.372z"/>
<path id="Dulwich and West Norwood" fill="null" stroke="null" d="M1071.5,1558.721L1059 1537.07 1034 1537.07 1021.5 1558.721 1034 1580.372 1059 1580.372z"/>
<path id="Bromley and Chislehurst" fill="null" stroke="null" d="M1146.5,1558.721L1134 1537.07 1109 1537.07 1096.5 1558.721 1109 1580.372 1134 1580.372z"/>
<path id="Erith and Thamesmead" fill="null" stroke="null" d="M1221.5,1558.721L1209 1537.07 1184 1537.07 1171.5 1558.721 1184 1580.372 1209 1580.372z"/>
<path id="Twickenham" fill="null" stroke="null" d="M884,1580.372L871.5 1558.721 846.5 1558.721 834 1580.372 846.5 1602.023 871.5 1602.023z"/>
<path id="Wimbledon" fill="null" stroke="null" d="M959,1580.372L946.5 1558.721 921.5 1558.721 909 1580.372 921.5 1602.023 946.5 1602.023z"/>
<path id="Streatham" fill="null" stroke="null" d="M1034,1580.372L1021.5 1558.721 996.5 1558.721 984 1580.372 996.5 1602.023 1021.5 1602.023z"/>
<path id="Lewisham East" fill="null" stroke="null" d="M1109,1580.372L1096.5 1558.721 1071.5 1558.721 1059 1580.372 1071.5 1602.023 1096.5 1602.023z"/>
<path id="Bexleyheath and Crayford" fill="null" stroke="null" d="M1184,1580.372L1171.5 1558.721 1146.5 1558.721 1134 1580.372 1146.5 1602.023 1171.5 1602.023z"/>
<path id="Sutton and Cheam" fill="null" stroke="null" d="M921.5,1602.023L909 1580.372 884 1580.372 871.5 1602.023 884 1623.674 909 1623.674z"/>
<path id="Tooting" fill="null" stroke="null" d="M996.5,1602.023L984 1580.372 959 1580.372 946.5 1602.023 959 1623.674 984 1623.674z"/>
<path id="Lewisham West and Penge" fill="null" stroke="null" d="M1071.5,1602.023L1059 1580.372 1034 1580.372 1021.5 1602.023 1034 1623.674 1059 1623.674z"/>
<path id="Orpington" fill="null" stroke="null" d="M1146.5,1602.023L1134 1580.372 1109 1580.372 1096.5 1602.023 1109 1623.674 1134 1623.674z"/>
<path id="Kingston and Surbiton" fill="null" stroke="null" d="M884,1623.674L871.5 1602.023 846.5 1602.023 834 1623.674 846.5 1645.325 871.5 1645.325z"/>
<path id="Mitcham and Morden" fill="null" stroke="null" d="M959,1623.674L946.5 1602.023 921.5 1602.023 909 1623.674 921.5 1645.325 946.5 1645.325z"/>
<path id="Croydon North" fill="null" stroke="null" d="M1034,1623.674L1021.5 1602.023 996.5 1602.023 984 1623.674 996.5 1645.325 1021.5 1645.325z"/>
<path id="Beckenham" fill="null" stroke="null" d="M1109,1623.674L1096.5 1602.023 1071.5 1602.023 1059 1623.674 1071.5 1645.325 1096.5 1645.325z"/>
<path id="Carshalton and Wallington" fill="null" stroke="null" d="M996.5,1645.325L984 1623.674 959 1623.674 946.5 1645.325 959 1666.976 984 1666.976z"/>
<path id="Croydon Central" fill="null" stroke="null" d="M1071.5,1645.325L1059 1623.674 1034 1623.674 1021.5 1645.325 1034 1666.976 1059 1666.976z"/>
<path id="Croydon South" fill="null" stroke="null" d="M1034,1666.976L1021.5 1645.325 996.5 1645.325 984 1666.976 996.5 1688.627 1021.5 1688.627z"/>

<path id="Milton Keynes North" fill="null" stroke="null" d="M809,1363.862L796.5 1342.211 771.5 1342.211 759 1363.862 771.5 1385.513 796.5 1385.513z"/>
<path id="Henley" fill="null" stroke="null" d="M771.5,1385.513L759 1363.862 734 1363.862 721.5 1385.513 734 1407.164 759 1407.164z"/>
<path id="Banbury" fill="null" stroke="null" d="M734,1407.164L721.5 1385.513 696.5 1385.513 684 1407.164 696.5 1428.815 721.5 1428.815z"/>
<path id="Milton Keynes South" fill="null" stroke="null" d="M809,1407.164L796.5 1385.513 771.5 1385.513 759 1407.164 771.5 1428.815 796.5 1428.815z"/>
<path id="Chesham and Amersham" fill="null" stroke="null" d="M771.5,1428.815L759 1407.164 734 1407.164 721.5 1428.815 734 1450.466 759 1450.466z"/>
<path id="Buckingham" fill="null" stroke="null" d="M846.5,1428.815L834 1407.164 809 1407.164 796.5 1428.815 809 1450.466 834 1450.466z"/>
<path id="Witney" fill="null" stroke="null" d="M734,1450.466L721.5 1428.815 696.5 1428.815 684 1450.466 696.5 1472.117 721.5 1472.117z"/>
<path id="Beaconsfield" fill="null" stroke="null" d="M809,1450.466L796.5 1428.815 771.5 1428.815 759 1450.466 771.5 1472.117 796.5 1472.117z"/>
<path id="Wycombe" fill="null" stroke="null" d="M771.5,1472.117L759 1450.466 734 1450.466 721.5 1472.117 734 1493.768 759 1493.768z"/>
<path id="Aylesbury" fill="null" stroke="null" d="M734,1493.768L721.5 1472.117 696.5 1472.117 684 1493.768 696.5 1515.419 721.5 1515.419z"/>
<path id="Slough" fill="null" stroke="null" d="M809,1493.768L796.5 1472.117 771.5 1472.117 759 1493.768 771.5 1515.419 796.5 1515.419z"/>
<path id="Oxford East" fill="null" stroke="null" d="M771.5,1515.419L759 1493.768 734 1493.768 721.5 1515.419 734 1537.07 759 1537.07z"/>
<path id="Oxford West and Abingdon" fill="null" stroke="null" d="M734,1537.07L721.5 1515.419 696.5 1515.419 684 1537.07 696.5 1558.721 721.5 1558.721z"/>
<path id="Runnymede and Weybridge" fill="null" stroke="null" d="M809,1537.07L796.5 1515.419 771.5 1515.419 759 1537.07 771.5 1558.721 796.5 1558.721z"/>
<path id="Rochester and Strood" fill="null" stroke="null" d="M1334,1537.07L1321.5 1515.419 1296.5 1515.419 1284 1537.07 1296.5 1558.721 1321.5 1558.721z"/>
<path id="Wantage" fill="null" stroke="null" d="M696.5,1558.721L684 1537.07 659 1537.07 646.5 1558.721 659 1580.372 684 1580.372z"/>
<path id="Maidenhead" fill="null" stroke="null" d="M771.5,1558.721L759 1537.07 734 1537.07 721.5 1558.721 734 1580.372 759 1580.372z"/>
<path id="Windsor" fill="null" stroke="null" d="M846.5,1558.721L834 1537.07 809 1537.07 796.5 1558.721 809 1580.372 834 1580.372z"/>
<path id="Gravesham" fill="null" stroke="null" d="M1296.5,1558.721L1284 1537.07 1259 1537.07 1246.5 1558.721 1259 1580.372 1284 1580.372z"/>
<path id="Sittingbourne and Sheppey" fill="null" stroke="null" d="M1371.5,1558.721L1359 1537.07 1334 1537.07 1321.5 1558.721 1334 1580.372 1359 1580.372z"/>
<path id="Reading East" fill="null" stroke="null" d="M734,1580.372L721.5 1558.721 696.5 1558.721 684 1580.372 696.5 1602.023 721.5 1602.023z"/>
<path id="Spelthorne" fill="null" stroke="null" d="M809,1580.372L796.5 1558.721 771.5 1558.721 759 1580.372 771.5 1602.023 796.5 1602.023z"/>
<path id="Dartford" fill="null" stroke="null" d="M1259,1580.372L1246.5 1558.721 1221.5 1558.721 1209 1580.372 1221.5 1602.023 1246.5 1602.023z"/>
<path id="Chatham and Aylesford" fill="null" stroke="null" d="M1334,1580.372L1321.5 1558.721 1296.5 1558.721 1284 1580.372 1296.5 1602.023 1321.5 1602.023z"/>
<path id="Canterbury" fill="null" stroke="null" d="M1409,1580.372L1396.5 1558.721 1371.5 1558.721 1359 1580.372 1371.5 1602.023 1396.5 1602.023z"/>
<path id="Newbury" fill="null" stroke="null" d="M696.5,1602.023L684 1580.372 659 1580.372 646.5 1602.023 659 1623.674 684 1623.674z"/>
<path id="Bracknell" fill="null" stroke="null" d="M771.5,1602.023L759 1580.372 734 1580.372 721.5 1602.023 734 1623.674 759 1623.674z"/>
<path id="Esher and Walton" fill="null" stroke="null" d="M846.5,1602.023L834 1580.372 809 1580.372 796.5 1602.023 809 1623.674 834 1623.674z"/>
<path id="Tonbridge and Malling" fill="null" stroke="null" d="M1221.5,1602.023L1209 1580.372 1184 1580.372 1171.5 1602.023 1184 1623.674 1209 1623.674z"/>
<path id="Maidstone and The Weald" fill="null" stroke="null" d="M1296.5,1602.023L1284 1580.372 1259 1580.372 1246.5 1602.023 1259 1623.674 1284 1623.674z"/>
<path id="Gillingham and Rainham" fill="null" stroke="null" d="M1371.5,1602.023L1359 1580.372 1334 1580.372 1321.5 1602.023 1334 1623.674 1359 1623.674z"/>
<path id="Thanet North" fill="null" stroke="null" d="M1446.5,1602.023L1434 1580.372 1409 1580.372 1396.5 1602.023 1409 1623.674 1434 1623.674z"/>
<path id="Reading West" fill="null" stroke="null" d="M734,1623.674L721.5 1602.023 696.5 1602.023 684 1623.674 696.5 1645.325 721.5 1645.325z"/>
<path id="Surrey Heath" fill="null" stroke="null" d="M809,1623.674L796.5 1602.023 771.5 1602.023 759 1623.674 771.5 1645.325 796.5 1645.325z"/>
<path id="Sevenoaks" fill="null" stroke="null" d="M1184,1623.674L1171.5 1602.023 1146.5 1602.023 1134 1623.674 1146.5 1645.325 1171.5 1645.325z"/>
<path id="Tunbridge Wells" fill="null" stroke="null" d="M1259,1623.674L1246.5 1602.023 1221.5 1602.023 1209 1623.674 1221.5 1645.325 1246.5 1645.325z"/>
<path id="Faversham and Mid Kent" fill="null" stroke="null" d="M1334,1623.674L1321.5 1602.023 1296.5 1602.023 1284 1623.674 1296.5 1645.325 1321.5 1645.325z"/>
<path id="Thanet South" fill="null" stroke="null" d="M1409,1623.674L1396.5 1602.023 1371.5 1602.023 1359 1623.674 1371.5 1645.325 1396.5 1645.325z"/>
<path id="Hampshire North West" fill="null" stroke="null" d="M696.5,1645.325L684 1623.674 659 1623.674 646.5 1645.325 659 1666.976 684 1666.976z"/>
<path id="Hampshire North East" fill="null" stroke="null" d="M771.5,1645.325L759 1623.674 734 1623.674 721.5 1645.325 734 1666.976 759 1666.976z"/>
<path id="Mole Valley" fill="null" stroke="null" d="M846.5,1645.325L834 1623.674 809 1623.674 796.5 1645.325 809 1666.976 834 1666.976z"/>
<path id="Epsom and Ewell" fill="null" stroke="null" d="M921.5,1645.325L909 1623.674 884 1623.674 871.5 1645.325 884 1666.976 909 1666.976z"/>
<path id="Surrey East" fill="null" stroke="null" d="M1146.5,1645.325L1134 1623.674 1109 1623.674 1096.5 1645.325 1109 1666.976 1134 1666.976z"/>
<path id="Wealden" fill="null" stroke="null" d="M1221.5,1645.325L1209 1623.674 1184 1623.674 1171.5 1645.325 1184 1666.976 1209 1666.976z"/>
<path id="Ashford" fill="null" stroke="null" d="M1296.5,1645.325L1284 1623.674 1259 1623.674 1246.5 1645.325 1259 1666.976 1284 1666.976z"/>
<path id="Dover" fill="null" stroke="null" d="M1371.5,1645.325L1359 1623.674 1334 1623.674 1321.5 1645.325 1334 1666.976 1359 1666.976z"/>
<path id="Wokingham" fill="null" stroke="null" d="M734,1666.976L721.5 1645.325 696.5 1645.325 684 1666.976 696.5 1688.627 721.5 1688.627z"/>
<path id="Woking" fill="null" stroke="null" d="M809,1666.976L796.5 1645.325 771.5 1645.325 759 1666.976 771.5 1688.627 796.5 1688.627z"/>
<path id="Guildford" fill="null" stroke="null" d="M884,1666.976L871.5 1645.325 846.5 1645.325 834 1666.976 846.5 1688.627 871.5 1688.627z"/>
<path id="Reigate" fill="null" stroke="null" d="M959,1666.976L946.5 1645.325 921.5 1645.325 909 1666.976 921.5 1688.627 946.5 1688.627z"/>
<path id="Horsham" fill="null" stroke="null" d="M1109,1666.976L1096.5 1645.325 1071.5 1645.325 1059 1666.976 1071.5 1688.627 1096.5 1688.627z"/>
<path id="Sussex Mid" fill="null" stroke="null" d="M1184,1666.976L1171.5 1645.325 1146.5 1645.325 1134 1666.976 1146.5 1688.627 1171.5 1688.627z"/>
<path id="Bexhill and Battle" fill="null" stroke="null" d="M1259,1666.976L1246.5 1645.325 1221.5 1645.325 1209 1666.976 1221.5 1688.627 1246.5 1688.627z"/>
<path id="Folkestone and Hythe" fill="null" stroke="null" d="M1334,1666.976L1321.5 1645.325 1296.5 1645.325 1284 1666.976 1296.5 1688.627 1321.5 1688.627z"/>
<path id="Romsey and Southampton North" fill="null" stroke="null" d="M696.5,1688.627L684 1666.976 659 1666.976 646.5 1688.627 659 1710.278 684 1710.278z"/>
<path id="Aldershot" fill="null" stroke="null" d="M771.5,1688.627L759 1666.976 734 1666.976 721.5 1688.627 734 1710.278 759 1710.278z"/>
<path id="Surrey South West" fill="null" stroke="null" d="M846.5,1688.627L834 1666.976 809 1666.976 796.5 1688.627 809 1710.278 834 1710.278z"/>
<path id="Hampshire East" fill="null" stroke="null" d="M921.5,1688.627L909 1666.976 884 1666.976 871.5 1688.627 884 1710.278 909 1710.278z"/>
<path id="Crawley" fill="null" stroke="null" d="M996.5,1688.627L984 1666.976 959 1666.976 946.5 1688.627 959 1710.278 984 1710.278z"/>
<path id="Arundel and South Downs" fill="null" stroke="null" d="M1071.5,1688.627L1059 1666.976 1034 1666.976 1021.5 1688.627 1034 1710.278 1059 1710.278z"/>
<path id="Brighton Pavilion" fill="null" stroke="null" d="M1146.5,1688.627L1134 1666.976 1109 1666.976 1096.5 1688.627 1109 1710.278 1134 1710.278z"/>
<path id="Lewes" fill="null" stroke="null" d="M1221.5,1688.627L1209 1666.976 1184 1666.976 1171.5 1688.627 1184 1710.278 1209 1710.278z"/>
<path id="Hastings and Rye" fill="null" stroke="null" d="M1296.5,1688.627L1284 1666.976 1259 1666.976 1246.5 1688.627 1259 1710.278 1284 1710.278z"/>
<path id="Basingstoke" fill="null" stroke="null" d="M734,1710.278L721.5 1688.627 696.5 1688.627 684 1710.278 696.5 1731.929 721.5 1731.929z"/>
<path id="Winchester" fill="null" stroke="null" d="M809,1710.278L796.5 1688.627 771.5 1688.627 759 1710.278 771.5 1731.929 796.5 1731.929z"/>
<path id="Portsmouth North" fill="null" stroke="null" d="M884,1710.278L871.5 1688.627 846.5 1688.627 834 1710.278 846.5 1731.929 871.5 1731.929z"/>
<path id="Havant" fill="null" stroke="null" d="M959,1710.278L946.5 1688.627 921.5 1688.627 909 1710.278 921.5 1731.929 946.5 1731.929z"/>
<path id="Bognor Regis and Littlehampton" fill="null" stroke="null" d="M1034,1710.278L1021.5 1688.627 996.5 1688.627 984 1710.278 996.5 1731.929 1021.5 1731.929z"/>
<path id="Worthing East and Shoreham" fill="null" stroke="null" d="M1109,1710.278L1096.5 1688.627 1071.5 1688.627 1059 1710.278 1071.5 1731.929 1096.5 1731.929z"/>
<path id="Brighton Kemptown" fill="null" stroke="null" d="M1184,1710.278L1171.5 1688.627 1146.5 1688.627 1134 1710.278 1146.5 1731.929 1171.5 1731.929z"/>
<path id="Eastbourne" fill="null" stroke="null" d="M1259,1710.278L1246.5 1688.627 1221.5 1688.627 1209 1710.278 1221.5 1731.929 1246.5 1731.929z"/>
<path id="New Forest East" fill="null" stroke="null" d="M696.5,1731.929L684 1710.278 659 1710.278 646.5 1731.929 659 1753.58 684 1753.58z"/>
<path id="Southampton Itchen" fill="null" stroke="null" d="M771.5,1731.929L759 1710.278 734 1710.278 721.5 1731.929 734 1753.58 759 1753.58z"/>
<path id="Meon Valley" fill="null" stroke="null" d="M846.5,1731.929L834 1710.278 809 1710.278 796.5 1731.929 809 1753.58 834 1753.58z"/>
<path id="Portsmouth South" fill="null" stroke="null" d="M921.5,1731.929L909 1710.278 884 1710.278 871.5 1731.929 884 1753.58 909 1753.58z"/>
<path id="Chichester" fill="null" stroke="null" d="M996.5,1731.929L984 1710.278 959 1710.278 946.5 1731.929 959 1753.58 984 1753.58z"/>
<path id="Worthing West" fill="null" stroke="null" d="M1071.5,1731.929L1059 1710.278 1034 1710.278 1021.5 1731.929 1034 1753.58 1059 1753.58z"/>
<path id="Hove" fill="null" stroke="null" d="M1146.5,1731.929L1134 1710.278 1109 1710.278 1096.5 1731.929 1109 1753.58 1134 1753.58z"/>
<path id="Southampton Test" fill="null" stroke="null" d="M734,1753.58L721.5 1731.929 696.5 1731.929 684 1753.58 696.5 1775.231 721.5 1775.231z"/>
<path id="Eastleigh" fill="null" stroke="null" d="M809,1753.58L796.5 1731.929 771.5 1731.929 759 1753.58 771.5 1775.231 796.5 1775.231z"/>
<path id="Gosport" fill="null" stroke="null" d="M884,1753.58L871.5 1731.929 846.5 1731.929 834 1753.58 846.5 1775.231 871.5 1775.231z"/>
<path id="New Forest West" fill="null" stroke="null" d="M696.5,1775.231L684 1753.58 659 1753.58 646.5 1775.231 659 1796.882 684 1796.882z"/>
<path id="Fareham" fill="null" stroke="null" d="M846.5,1775.231L834 1753.58 809 1753.58 796.5 1775.231 809 1796.882 834 1796.882z"/>
<path id="Isle Of Wight" fill="null" stroke="null" d="M771.5,1818.533L759 1796.882 734 1796.882 721.5 1818.533 734 1840.184 759 1840.184z"/>
<path id="Cheltenham" fill="null" stroke="null" d="M696.5,1428.815L684 1407.164 659 1407.164 646.5 1428.815 659 1450.466 684 1450.466z"/>
<path id="Tewkesbury" fill="null" stroke="null" d="M659,1450.466L646.5 1428.815 621.5 1428.815 609 1450.466 621.5 1472.117 646.5 1472.117z"/>
<path id="Forest Of Dean" fill="null" stroke="null" d="M621.5,1472.117L609 1450.466 584 1450.466 571.5 1472.117 584 1493.768 609 1493.768z"/>
<path id="Cotswolds The" fill="null" stroke="null" d="M696.5,1472.117L684 1450.466 659 1450.466 646.5 1472.117 659 1493.768 684 1493.768z"/>
<path id="Gloucester" fill="null" stroke="null" d="M659,1493.768L646.5 1472.117 621.5 1472.117 609 1493.768 621.5 1515.419 646.5 1515.419z"/>
<path id="Thornbury and Yate" fill="null" stroke="null" d="M621.5,1515.419L609 1493.768 584 1493.768 571.5 1515.419 584 1537.07 609 1537.07z"/>
<path id="Swindon North" fill="null" stroke="null" d="M696.5,1515.419L684 1493.768 659 1493.768 646.5 1515.419 659 1537.07 684 1537.07z"/>
<path id="Filton and Bradley Stoke" fill="null" stroke="null" d="M584,1537.07L571.5 1515.419 546.5 1515.419 534 1537.07 546.5 1558.721 571.5 1558.721z"/>
<path id="Stroud" fill="null" stroke="null" d="M659,1537.07L646.5 1515.419 621.5 1515.419 609 1537.07 621.5 1558.721 646.5 1558.721z"/>
<path id="Kingswood" fill="null" stroke="null" d="M621.5,1558.721L609 1537.07 584 1537.07 571.5 1558.721 584 1580.372 609 1580.372z"/>
<path id="Bristol East" fill="null" stroke="null" d="M584,1580.372L571.5 1558.721 546.5 1558.721 534 1580.372 546.5 1602.023 571.5 1602.023z"/>
<path id="Swindon South" fill="null" stroke="null" d="M659,1580.372L646.5 1558.721 621.5 1558.721 609 1580.372 621.5 1602.023 646.5 1602.023z"/>
<path id="Bristol North West" fill="null" stroke="null" d="M546.5,1602.023L534 1580.372 509 1580.372 496.5 1602.023 509 1623.674 534 1623.674z"/>
<path id="Bath" fill="null" stroke="null" d="M621.5,1602.023L609 1580.372 584 1580.372 571.5 1602.023 584 1623.674 609 1623.674z"/>
<path id="Somerset North" fill="null" stroke="null" d="M509,1623.674L496.5 1602.023 471.5 1602.023 459 1623.674 471.5 1645.325 496.5 1645.325z"/>
<path id="Bristol West" fill="null" stroke="null" d="M584,1623.674L571.5 1602.023 546.5 1602.023 534 1623.674 546.5 1645.325 571.5 1645.325z"/>
<path id="Wiltshire North" fill="null" stroke="null" d="M659,1623.674L646.5 1602.023 621.5 1602.023 609 1623.674 621.5 1645.325 646.5 1645.325z"/>
<path id="Bristol South" fill="null" stroke="null" d="M546.5,1645.325L534 1623.674 509 1623.674 496.5 1645.325 509 1666.976 534 1666.976z"/>
<path id="Chippenham" fill="null" stroke="null" d="M621.5,1645.325L609 1623.674 584 1623.674 571.5 1645.325 584 1666.976 609 1666.976z"/>
<path id="Weston-Super-Mare" fill="null" stroke="null" d="M509,1666.976L496.5 1645.325 471.5 1645.325 459 1666.976 471.5 1688.627 496.5 1688.627z"/>
<path id="Somerset North East" fill="null" stroke="null" d="M584,1666.976L571.5 1645.325 546.5 1645.325 534 1666.976 546.5 1688.627 571.5 1688.627z"/>
<path id="Devizes" fill="null" stroke="null" d="M659,1666.976L646.5 1645.325 621.5 1645.325 609 1666.976 621.5 1688.627 646.5 1688.627z"/>
<path id="Wells" fill="null" stroke="null" d="M471.5,1688.627L459 1666.976 434 1666.976 421.5 1688.627 434 1710.278 459 1710.278z"/>
<path id="Wiltshire South West" fill="null" stroke="null" d="M546.5,1688.627L534 1666.976 509 1666.976 496.5 1688.627 509 1710.278 534 1710.278z"/>
<path id="Bournemouth West" fill="null" stroke="null" d="M621.5,1688.627L609 1666.976 584 1666.976 571.5 1688.627 584 1710.278 609 1710.278z"/>
<path id="Bridgwater and West Somerset" fill="null" stroke="null" d="M434,1710.278L421.5 1688.627 396.5 1688.627 384 1710.278 396.5 1731.929 421.5 1731.929z"/>
<path id="Somerton and Frome" fill="null" stroke="null" d="M509,1710.278L496.5 1688.627 471.5 1688.627 459 1710.278 471.5 1731.929 496.5 1731.929z"/>
<path id="Dorset North" fill="null" stroke="null" d="M584,1710.278L571.5 1688.627 546.5 1688.627 534 1710.278 546.5 1731.929 571.5 1731.929z"/>
<path id="Salisbury" fill="null" stroke="null" d="M659,1710.278L646.5 1688.627 621.5 1688.627 609 1710.278 621.5 1731.929 646.5 1731.929z"/>
<path id="Devon North" fill="null" stroke="null" d="M396.5,1731.929L384 1710.278 359 1710.278 346.5 1731.929 359 1753.58 384 1753.58z"/>
<path id="Yeovil" fill="null" stroke="null" d="M471.5,1731.929L459 1710.278 434 1710.278 421.5 1731.929 434 1753.58 459 1753.58z"/>
<path id="Dorset Mid and Poole North" fill="null" stroke="null" d="M546.5,1731.929L534 1710.278 509 1710.278 496.5 1731.929 509 1753.58 534 1753.58z"/>
<path id="Bournemouth East" fill="null" stroke="null" d="M621.5,1731.929L609 1710.278 584 1710.278 571.5 1731.929 584 1753.58 609 1753.58z"/>
<path id="Taunton Deane" fill="null" stroke="null" d="M434,1753.58L421.5 1731.929 396.5 1731.929 384 1753.58 396.5 1775.231 421.5 1775.231z"/>
<path id="Tiverton and Honiton" fill="null" stroke="null" d="M509,1753.58L496.5 1731.929 471.5 1731.929 459 1753.58 471.5 1775.231 496.5 1775.231z"/>
<path id="Poole" fill="null" stroke="null" d="M584,1753.58L571.5 1731.929 546.5 1731.929 534 1753.58 546.5 1775.231 571.5 1775.231z"/>
<path id="Christchurch" fill="null" stroke="null" d="M659,1753.58L646.5 1731.929 621.5 1731.929 609 1753.58 621.5 1775.231 646.5 1775.231z"/>
<path id="Devon Central" fill="null" stroke="null" d="M396.5,1775.231L384 1753.58 359 1753.58 346.5 1775.231 359 1796.882 384 1796.882z"/>
<path id="Devon East" fill="null" stroke="null" d="M471.5,1775.231L459 1753.58 434 1753.58 421.5 1775.231 434 1796.882 459 1796.882z"/>
<path id="Dorset West" fill="null" stroke="null" d="M546.5,1775.231L534 1753.58 509 1753.58 496.5 1775.231 509 1796.882 534 1796.882z"/>
<path id="Devon West and Torridge" fill="null" stroke="null" d="M359,1796.882L346.5 1775.231 321.5 1775.231 309 1796.882 321.5 1818.533 346.5 1818.533z"/>
<path id="Exeter" fill="null" stroke="null" d="M434,1796.882L421.5 1775.231 396.5 1775.231 384 1796.882 396.5 1818.533 421.5 1818.533z"/>
<path id="Dorset South" fill="null" stroke="null" d="M584,1796.882L571.5 1775.231 546.5 1775.231 534 1796.882 546.5 1818.533 571.5 1818.533z"/>
<path id="Cornwall North" fill="null" stroke="null" d="M321.5,1818.533L309 1796.882 284 1796.882 271.5 1818.533 284 1840.184 309 1840.184z"/>
<path id="Plymouth Moor View" fill="null" stroke="null" d="M396.5,1818.533L384 1796.882 359 1796.882 346.5 1818.533 359 1840.184 384 1840.184z"/>
<path id="Newton Abbot" fill="null" stroke="null" d="M471.5,1818.533L459 1796.882 434 1796.882 421.5 1818.533 434 1840.184 459 1840.184z"/>
<path id="St Austell and Newquay" fill="null" stroke="null" d="M284,1840.184L271.5 1818.533 246.5 1818.533 234 1840.184 246.5 1861.835 271.5 1861.835z"/>
<path id="Plymouth Sutton and Devonport" fill="null" stroke="null" d="M359,1840.184L346.5 1818.533 321.5 1818.533 309 1840.184 321.5 1861.835 346.5 1861.835z"/>
<path id="Torbay" fill="null" stroke="null" d="M434,1840.184L421.5 1818.533 396.5 1818.533 384 1840.184 396.5 1861.835 421.5 1861.835z"/>
<path id="Camborne and Redruth" fill="null" stroke="null" d="M246.5,1861.835L234 1840.184 209 1840.184 196.5 1861.835 209 1883.486 234 1883.486z"/>
<path id="Cornwall South East" fill="null" stroke="null" d="M321.5,1861.835L309 1840.184 284 1840.184 271.5 1861.835 284 1883.486 309 1883.486z"/>
<path id="Devon South West" fill="null" stroke="null" d="M396.5,1861.835L384 1840.184 359 1840.184 346.5 1861.835 359 1883.486 384 1883.486z"/>
<path id="St Ives" fill="null" stroke="null" d="M209,1883.486L196.5 1861.835 171.5 1861.835 159 1883.486 171.5 1905.137 196.5 1905.137z"/>
<path id="Truro and Falmouth" fill="null" stroke="null" d="M284,1883.486L271.5 1861.835 246.5 1861.835 234 1883.486 246.5 1905.137 271.5 1905.137z"/>
<path id="Totnes" fill="null" stroke="null" d="M434,1883.486L421.5 1861.835 396.5 1861.835 384 1883.486 396.5 1905.137 421.5 1905.137z"/>
</g>
</g>
</svg>